<svg width="61" height="54" fill="none" xmlns="http://www.w3.org/2000/svg"><g fill="#000"><path d="M11.809 34.78h7.085a2.362 2.362 0 000-4.723H11.81a2.362 2.362 0 100 4.723zm0-9.447h7.085a2.362 2.362 0 100-4.723H11.81a2.362 2.362 0 100 4.723zm13.869 7.085a2.362 2.362 0 002.361 2.362c4.939 0 9.582-1.923 13.074-5.415l17.271-17.273a7.081 7.081 0 000-10.02c-2.762-2.763-7.257-2.763-10.02 0L31.093 19.345a18.369 18.369 0 00-5.415 13.073zM51.704 5.412c.921-.92 2.42-.92 3.34 0a2.36 2.36 0 010 3.34L37.773 26.025a13.667 13.667 0 01-7.127 3.787 13.67 13.67 0 013.787-7.127L51.704 5.412z"/><path d="M7.085 53.673c1.745 0 3.422-.64 4.723-1.803l3.264-2.92h24.133c6.511 0 11.808-5.297 11.808-11.809v-5.297a2.362 2.362 0 10-4.723 0v5.297a7.093 7.093 0 01-7.085 7.086H14.17c-.58 0-1.141.214-1.574.6L8.659 48.35a2.355 2.355 0 01-1.574.601 2.364 2.364 0 01-2.362-2.362v-28.34a7.093 7.093 0 017.086-7.086h19.808a2.362 2.362 0 100-4.723H11.81C5.297 6.439 0 11.736 0 18.248v28.34a7.093 7.093 0 007.085 7.085z"/></g></svg>