<svg width="63" height="52" fill="none" xmlns="http://www.w3.org/2000/svg"><path d="M40.957 11.401c-.633-4.053-4.146-7.163-8.374-7.163-1.59 0-3.12.44-4.445 1.26A11.217 11.217 0 0018.458 0C12.225 0 7.156 5.07 7.156 11.3l.001.118C3.154 12.092 0 15.583 0 19.776c0 4.673 3.896 8.475 8.57 8.475h31.075c4.674 0 8.57-3.802 8.57-8.475 0-4.228-3.205-7.742-7.258-8.375z" fill="#E3E3E3"/><g filter="url(#filter0_d_280_1093)"><path d="M57.926 23.722c0-.412-.238-.742-.635-.824l-4.044-.742c-.238-.66-.476-1.319-.872-1.978l2.22-3.215c.238-.33.159-.824-.08-1.072-.078-.082-2.933-2.802-3.171-2.967-.238-.165-.476-.247-.793-.165-.159.083-.238.083-.317.165l-3.014 1.978c-.08.083-.158.083-.238.165a9.077 9.077 0 00-1.903-.742l-.793-3.874a.78.78 0 00-.793-.66h-4.361c-.397 0-.714.33-.793.743l-.794 3.791c-.713.248-1.427.495-2.061.825a77.146 77.146 0 00-3.252-2.061l-.158-.165v.082c-.476-.247-.555-.164-.793-.082 0 .082-.159.165-.159.247l-3.013 2.885a.819.819 0 000 1.154c.238.33.951 1.32 1.506 2.143l.635 1.072c-.317.66-.635 1.319-.793 1.978l-3.965.742c-.397.083-.635.412-.635.824v4.287c0 .33.159.577.397.741.159.083.238.165.396.083l3.886.742c.159.494.397 1.154.872 1.978-1.11 1.649-1.744 2.555-2.061 3.132-.08 0-.08.083-.159.165-.238.495-.238.577-.08.825.08.164.16.247.318.33.555.494 2.855 2.72 3.013 2.884.238.165.476.247.793.165.08 0 .238-.082.318-.165l3.25-2.225a9.1 9.1 0 001.904.742l.793 3.874a.78.78 0 00.793.659h4.362a.78.78 0 00.793-.66l.793-3.873c.713-.248 1.427-.495 2.061-.825l3.41 2.226c.318.165.714.165.952-.083l3.093-3.05c.317-.247.317-.741.079-1.071l-2.22-3.215c.317-.66.634-1.319.793-1.978l3.965-.742c.396-.082.634-.412.634-.824l-.08-4.369zM41.43 33.12c-3.886 0-6.978-2.638-7.295-7.006v-.165c0-3.545 2.696-6.595 6.344-7.09 4.203-.494 8.168 2.639 8.168 7.09 0 3.956-3.331 7.17-7.217 7.17z" fill="url(#paint0_linear_280_1093)"/><path d="M57.926 23.722c0-.412-.238-.742-.635-.824l-4.044-.742c-.238-.66-.476-1.319-.872-1.978l2.22-3.215c.238-.33.159-.824-.08-1.072-.078-.082-2.933-2.802-3.171-2.967-.238-.165-.476-.247-.793-.165-.159.083-.238.083-.317.165l-3.014 1.978c-.08.083-.158.083-.238.165a9.077 9.077 0 00-1.903-.742l-.793-3.874a.78.78 0 00-.793-.66h-4.361c-.397 0-.714.33-.793.743l-.794 3.791c-.713.248-1.427.495-2.061.825a77.146 77.146 0 00-3.252-2.061l-.158-.165v.082c-.476-.247-.555-.164-.793-.082 0 .082-.159.165-.159.247l-3.013 2.885a.819.819 0 000 1.154c.238.33.951 1.32 1.506 2.143l.635 1.072c-.317.66-.635 1.319-.793 1.978l-3.965.742c-.397.083-.635.412-.635.824v4.287c0 .33.159.577.397.741.159.083.238.165.396.083l3.886.742c.159.494.397 1.154.872 1.978-1.11 1.649-1.744 2.555-2.061 3.132-.08 0-.08.083-.159.165-.238.495-.238.577-.08.825.08.164.16.247.318.33.555.494 2.855 2.72 3.013 2.884.238.165.476.247.793.165.08 0 .238-.082.318-.165l3.25-2.225a9.1 9.1 0 001.904.742l.793 3.874a.78.78 0 00.793.659h4.362a.78.78 0 00.793-.66l.793-3.873c.713-.248 1.427-.495 2.061-.825l3.41 2.226c.318.165.714.165.952-.083l3.093-3.05c.317-.247.317-.741.079-1.071l-2.22-3.215c.317-.66.634-1.319.793-1.978l3.965-.742c.396-.082.634-.412.634-.824l-.08-4.369zM41.43 33.12c-3.886 0-6.978-2.638-7.295-7.006v-.165c0-3.545 2.696-6.595 6.344-7.09 4.203-.494 8.168 2.639 8.168 7.09 0 3.956-3.331 7.17-7.217 7.17z" fill="url(#paint1_linear_280_1093)"/></g><defs><linearGradient id="paint0_linear_280_1093" x1="29.705" y1="37.448" x2="52.618" y2="14.003" gradientUnits="userSpaceOnUse"><stop stop-color="#FD346E"/><stop offset="1" stop-color="#FF6491"/></linearGradient><linearGradient id="paint1_linear_280_1093" x1="45.613" y1="7.496" x2="36.775" y2="55.216" gradientUnits="userSpaceOnUse"><stop stop-color="#777"/><stop offset="1" stop-color="#DDD"/></linearGradient><filter id="filter0_d_280_1093" x="19.857" y="8.792" width="43.148" height="42.394" filterUnits="userSpaceOnUse" color-interpolation-filters="sRGB"><feFlood flood-opacity="0" result="BackgroundImageFix"/><feColorMatrix in="SourceAlpha" values="0 0 0 0 0 0 0 0 0 0 0 0 0 0 0 0 0 0 127 0" result="hardAlpha"/><feOffset dy="4"/><feGaussianBlur stdDeviation="2.5"/><feComposite in2="hardAlpha" operator="out"/><feColorMatrix values="0 0 0 0 0 0 0 0 0 0 0 0 0 0 0 0 0 0 0.09 0"/><feBlend in2="BackgroundImageFix" result="effect1_dropShadow_280_1093"/><feBlend in="SourceGraphic" in2="effect1_dropShadow_280_1093" result="shape"/></filter></defs></svg>