<svg width="42" height="42" fill="none" xmlns="http://www.w3.org/2000/svg"><g clip-path="url(#clip0_299_812)"><path d="M13 7.2l5 2.8-2.8-5L18 0l-5 2.8L8 0l2.8 5L8 10l5-2.8z" fill="url(#paint0_linear_299_812)"/><path d="M37 26.8L32 24l2.8 5-2.8 5 5-2.8 5 2.8-2.8-5 2.8-5-5 2.8z" fill="url(#paint1_linear_299_812)"/><path d="M42 0l-5 2.8L32 0l2.8 5-2.8 5 5-2.8 5 2.8-2.8-5L42 0z" fill="url(#paint2_linear_299_812)"/><path d="M26.8 10.6c-.8-.8-2-.8-2.8 0L.6 34c-.8.8-.8 2 0 2.8l4.6 4.6c.8.8 2 .8 2.8 0L31.4 18c.8-.8.8-2 0-2.8l-4.6-4.6zm-2.2 11l-4.2-4.2 4.8-4.8 4.2 4.2-4.8 4.8z" fill="url(#paint3_linear_299_812)"/></g><defs><linearGradient id="paint0_linear_299_812" x1="13" y1="0" x2="13" y2="10" gradientUnits="userSpaceOnUse"><stop stop-color="#4E073A"/><stop offset="1" stop-color="#B11385"/></linearGradient><linearGradient id="paint1_linear_299_812" x1="37" y1="24" x2="37" y2="34" gradientUnits="userSpaceOnUse"><stop stop-color="#4E073A"/><stop offset="1" stop-color="#B11385"/></linearGradient><linearGradient id="paint2_linear_299_812" x1="37" y1="0" x2="37" y2="10" gradientUnits="userSpaceOnUse"><stop stop-color="#4E073A"/><stop offset="1" stop-color="#B11385"/></linearGradient><linearGradient id="paint3_linear_299_812" x1="16" y1="10" x2="16" y2="42" gradientUnits="userSpaceOnUse"><stop stop-color="#4E073A"/><stop offset="1" stop-color="#B11385"/></linearGradient><clipPath id="clip0_299_812"><path fill="#fff" d="M0 0h42v42H0z"/></clipPath></defs></svg>