<svg width="44" height="44" fill="none" xmlns="http://www.w3.org/2000/svg"><path d="M12.375 24.75h-8.25c-.76 0-1.375.616-1.375 1.375v13.75c0 .76.616 1.375 1.375 1.375h8.25c.76 0 1.375-.616 1.375-1.375v-13.75c0-.76-.616-1.375-1.375-1.375z" fill="url(#paint0_linear_280_1202)"/><path d="M39.875 13.75h-8.25c-.76 0-1.375.616-1.375 1.375v24.75c0 .76.616 1.375 1.375 1.375h8.25c.76 0 1.375-.616 1.375-1.375v-24.75c0-.76-.616-1.375-1.375-1.375z" fill="url(#paint1_linear_280_1202)"/><path d="M26.125 2.75h-8.25c-.76 0-1.375.616-1.375 1.375v35.75c0 .76.616 1.375 1.375 1.375h8.25c.76 0 1.375-.616 1.375-1.375V4.125c0-.76-.616-1.375-1.375-1.375z" fill="url(#paint2_linear_280_1202)"/><defs><linearGradient id="paint0_linear_280_1202" x1="8.25" y1="24.75" x2="8.25" y2="41.25" gradientUnits="userSpaceOnUse"><stop stop-color="#FEBD00"/><stop offset="1" stop-color="#FE6B00"/></linearGradient><linearGradient id="paint1_linear_280_1202" x1="35.75" y1="13.75" x2="35.75" y2="41.25" gradientUnits="userSpaceOnUse"><stop stop-color="#FEBD00"/><stop offset="1" stop-color="#FE6B00"/></linearGradient><linearGradient id="paint2_linear_280_1202" x1="22" y1="2.75" x2="22" y2="41.25" gradientUnits="userSpaceOnUse"><stop stop-color="#FEBD00"/><stop offset="1" stop-color="#FE6B00"/></linearGradient></defs></svg>