<svg width="40" height="40" fill="none" xmlns="http://www.w3.org/2000/svg"><path d="M39.937.858A1.156 1.156 0 0038.828 0h-4.687a1.171 1.171 0 100 2.344h2.74l-5.596 6.318C23.74 17.197 12.636 21.71 1.272 20.721a1.171 1.171 0 10-.201 2.334c1.096.096 2.021.142 3.114.142 10.951 0 21.548-4.718 28.856-12.983l4.615-5.21v.855a1.171 1.171 0 102.344 0V2.33L39.937.86z" fill="url(#paint0_linear_280_1177)"/><path d="M38.828 37.656h-1.25V11.31a1.173 1.173 0 00-2.068-.755l-.72.855a40.529 40.529 0 01-3.855 3.987 1.171 1.171 0 00-.388.87v21.39h-2.344V19.923c0-.432-.24-.83-.62-1.034a1.175 1.175 0 00-1.205.062 41.36 41.36 0 01-4.558 2.654 1.171 1.171 0 00-.648 1.049v15.002h-2.344V24.652a1.173 1.173 0 00-1.565-1.103c-1.487.53-3.02.98-4.559 1.334a1.173 1.173 0 00-.907 1.142v11.631H9.453V26.833A1.173 1.173 0 008.15 25.67c-1.504.172-3.037.26-4.556.262a1.172 1.172 0 00-1.171 1.172v10.553h-1.25a1.171 1.171 0 100 2.344h37.656a1.171 1.171 0 100-2.344z" fill="url(#paint1_linear_280_1177)"/><defs><linearGradient id="paint0_linear_280_1177" x1="20" y1="0" x2="20" y2="23.197" gradientUnits="userSpaceOnUse"><stop stop-color="#7534FF"/><stop offset="1" stop-color="#287EFF"/></linearGradient><linearGradient id="paint1_linear_280_1177" x1="20" y1="10.138" x2="20" y2="40" gradientUnits="userSpaceOnUse"><stop stop-color="#7534FF"/><stop offset="1" stop-color="#287EFF"/></linearGradient></defs></svg>