<svg width="42" height="42" fill="none" xmlns="http://www.w3.org/2000/svg"><path d="M41.9 26.896a2.355 2.355 0 01-1.108 1.411l-3.757 2.1v4.294a2.34 2.34 0 01-2.333 2.333h-4.305l-2.089 3.757a2.355 2.355 0 01-1.412 1.108 2.355 2.355 0 01-1.773-.21l-4.13-2.31-4.13 2.31a2.349 2.349 0 01-1.143.292c-.21 0-.42-.024-.63-.082a2.355 2.355 0 01-1.412-1.108l-2.088-3.757H7.285a2.34 2.34 0 01-2.333-2.333v-4.294l-3.757-2.1a2.355 2.355 0 01-1.108-1.411 2.355 2.355 0 01.21-1.774l2.31-4.13-2.31-4.13a2.347 2.347 0 01.898-3.185l3.757-2.1V7.284a2.34 2.34 0 012.333-2.333h4.305l2.088-3.757A2.355 2.355 0 0115.09.086a2.354 2.354 0 011.773.21l4.13 2.31 4.13-2.31a2.355 2.355 0 011.773-.21c.607.175 1.097.56 1.412 1.108l2.088 3.757h4.306a2.34 2.34 0 012.333 2.333v4.293l3.757 2.1a2.347 2.347 0 01.898 3.185l-2.31 4.13 2.31 4.13a2.36 2.36 0 01.21 1.774z" fill="url(#paint0_linear_280_1193)"/><path d="M18.656 27.992c-.298 0-.597-.114-.825-.342l-5.833-5.833a1.166 1.166 0 111.65-1.65l5.008 5.009 10.842-10.842a1.166 1.166 0 111.65 1.65L19.48 27.65a1.164 1.164 0 01-.825.342z" fill="#fff"/><defs><linearGradient id="paint0_linear_280_1193" x1="20.993" y1="41.985" x2="20.993" y2=".001" gradientUnits="userSpaceOnUse"><stop stop-color="#61BF34"/><stop offset=".994" stop-color="#26B7FF"/></linearGradient></defs></svg>