<svg width="51" height="48" fill="none" xmlns="http://www.w3.org/2000/svg"><g fill="#000"><path d="M45.536 10.929h-3.643V5.464A5.464 5.464 0 0036.429 0H5.464A5.464 5.464 0 000 5.464v36.429a5.464 5.464 0 005.464 5.464h39.161A6.375 6.375 0 0051 40.982v-24.59a5.464 5.464 0 00-5.464-5.463zM3.643 41.893V5.464a1.821 1.821 0 011.821-1.821H36.43a1.821 1.821 0 011.821 1.821v35.518c.004.947.222 1.881.638 2.732H5.464a1.821 1.821 0 01-1.821-1.821zm43.714-.91a2.732 2.732 0 11-5.464 0V14.57h3.643a1.821 1.821 0 011.821 1.822v24.59z"/><path d="M32.786 12.75H14.57a1.821 1.821 0 000 3.643h18.215a1.821 1.821 0 100-3.643zm-.001 9.107H9.107a1.821 1.821 0 100 3.643h23.678a1.821 1.821 0 000-3.643zm0 9.107H9.107a1.822 1.822 0 000 3.643h23.678a1.821 1.821 0 000-3.643z"/></g></svg>