<svg width="30" height="25" fill="none" xmlns="http://www.w3.org/2000/svg"><path d="M24.994 13.379h-2.26c.23.63.356 1.31.356 2.02v8.54c0 .295-.051.58-.145.843h3.736a2.533 2.533 0 002.53-2.53v-4.656a4.222 4.222 0 00-4.217-4.217z" fill="#000"/><path d="M24.994 13.379h-2.26c.23.63.356 1.31.356 2.02v8.54c0 .295-.051.58-.145.843h3.736a2.533 2.533 0 002.53-2.53v-4.656a4.222 4.222 0 00-4.217-4.217z" fill="url(#paint0_linear_280_865)"/><path d="M6.12 15.4c0-.71.127-1.39.357-2.021h-2.26A4.222 4.222 0 000 17.596v4.656a2.533 2.533 0 002.53 2.53h3.736a2.52 2.52 0 01-.145-.843v-8.54z" fill="#000"/><path d="M6.12 15.4c0-.71.127-1.39.357-2.021h-2.26A4.222 4.222 0 000 17.596v4.656a2.533 2.533 0 002.53 2.53h3.736a2.52 2.52 0 01-.145-.843v-8.54z" fill="url(#paint1_linear_280_865)"/><path d="M17.18 11.18h-5.166a4.222 4.222 0 00-4.217 4.217v8.54c0 .465.378.843.843.843h11.914a.844.844 0 00.843-.843v-8.54a4.222 4.222 0 00-4.217-4.217z" fill="#000"/><path d="M17.18 11.18h-5.166a4.222 4.222 0 00-4.217 4.217v8.54c0 .465.378.843.843.843h11.914a.844.844 0 00.843-.843v-8.54a4.222 4.222 0 00-4.217-4.217z" fill="url(#paint2_linear_280_865)"/><path d="M14.603 0a5.078 5.078 0 00-5.072 5.072 5.076 5.076 0 005.072 5.072 5.076 5.076 0 005.072-5.072A5.078 5.078 0 0014.603 0z" fill="#000"/><path d="M14.603 0a5.078 5.078 0 00-5.072 5.072 5.076 5.076 0 005.072 5.072 5.076 5.076 0 005.072-5.072A5.078 5.078 0 0014.603 0z" fill="url(#paint3_linear_280_865)"/><path d="M5.707 4.726A3.798 3.798 0 001.914 8.52a3.798 3.798 0 003.793 3.793c.531 0 1.036-.11 1.495-.308a3.817 3.817 0 001.853-1.703A3.769 3.769 0 009.5 8.52a3.798 3.798 0 00-3.794-3.794z" fill="#000"/><path d="M5.707 4.726A3.798 3.798 0 001.914 8.52a3.798 3.798 0 003.793 3.793c.531 0 1.036-.11 1.495-.308a3.817 3.817 0 001.853-1.703A3.769 3.769 0 009.5 8.52a3.798 3.798 0 00-3.794-3.794z" fill="url(#paint4_linear_280_865)"/><path d="M23.512 4.727a3.797 3.797 0 00-3.793 3.793c0 .644.161 1.25.446 1.782a3.816 3.816 0 001.852 1.704 3.798 3.798 0 005.288-3.486 3.798 3.798 0 00-3.793-3.793z" fill="#000"/><path d="M23.512 4.727a3.797 3.797 0 00-3.793 3.793c0 .644.161 1.25.446 1.782a3.816 3.816 0 001.852 1.704 3.798 3.798 0 005.288-3.486 3.798 3.798 0 00-3.793-3.793z" fill="url(#paint5_linear_280_865)"/><defs><linearGradient id="paint0_linear_280_865" x1="26.003" y1="27.296" x2="30.182" y2="14.773" gradientUnits="userSpaceOnUse"><stop stop-color="#710051"/><stop offset="1" stop-color="#B205A1"/></linearGradient><linearGradient id="paint1_linear_280_865" x1="3.269" y1="27.296" x2="7.447" y2="14.773" gradientUnits="userSpaceOnUse"><stop stop-color="#710051"/><stop offset="1" stop-color="#B205A1"/></linearGradient><linearGradient id="paint2_linear_280_865" x1="14.661" y1="27.779" x2="17.698" y2="11.755" gradientUnits="userSpaceOnUse"><stop stop-color="#710051"/><stop offset="1" stop-color="#B205A1"/></linearGradient><linearGradient id="paint3_linear_280_865" x1="14.651" y1="12.381" x2="16.916" y2=".429" gradientUnits="userSpaceOnUse"><stop stop-color="#710051"/><stop offset="1" stop-color="#B205A1"/></linearGradient><linearGradient id="paint4_linear_280_865" x1="5.743" y1="13.986" x2="7.437" y2="5.048" gradientUnits="userSpaceOnUse"><stop stop-color="#710051"/><stop offset="1" stop-color="#B205A1"/></linearGradient><linearGradient id="paint5_linear_280_865" x1="23.547" y1="13.986" x2="25.241" y2="5.048" gradientUnits="userSpaceOnUse"><stop stop-color="#710051"/><stop offset="1" stop-color="#B205A1"/></linearGradient></defs></svg>