<svg width="30" height="30" fill="none" xmlns="http://www.w3.org/2000/svg"><path d="M19.258 21.471a.624.624 0 00-.48-.225h-7.56a.624.624 0 00-.614.739c.898 4.865 2.623 8.01 4.394 8.01s3.496-3.145 4.394-8.01a.624.624 0 00-.134-.514z" fill="#000"/><path d="M19.258 21.471a.624.624 0 00-.48-.225h-7.56a.624.624 0 00-.614.739c.898 4.865 2.623 8.01 4.394 8.01s3.496-3.145 4.394-8.01a.624.624 0 00-.134-.514z" fill="url(#paint0_linear_280_851)"/><path d="M29.28 10.434a.624.624 0 00-.595-.434h-7.037a.624.624 0 00-.621.688c.144 1.435.217 2.886.217 4.31 0 1.426-.073 2.877-.217 4.312a.624.624 0 00.621.688h7.037a.624.624 0 00.595-.435 14.984 14.984 0 000-9.128z" fill="#000"/><path d="M29.28 10.434a.624.624 0 00-.595-.434h-7.037a.624.624 0 00-.621.688c.144 1.435.217 2.886.217 4.31 0 1.426-.073 2.877-.217 4.312a.624.624 0 00.621.688h7.037a.624.624 0 00.595-.435 14.984 14.984 0 000-9.128z" fill="url(#paint1_linear_280_851)"/><path d="M20.699 8.227c.05.3.31.52.616.52h6.307a.627.627 0 00.549-.923A15.12 15.12 0 0019.328.64a.625.625 0 00-.726.903c.911 1.632 1.636 3.943 2.097 6.684z" fill="#000"/><path d="M20.699 8.227c.05.3.31.52.616.52h6.307a.627.627 0 00.549-.923A15.12 15.12 0 0019.328.64a.625.625 0 00-.726.903c.911 1.632 1.636 3.943 2.097 6.684z" fill="url(#paint2_linear_280_851)"/><path d="M19.134 10h-8.286a.622.622 0 00-.62.558 41.585 41.585 0 00-.236 4.441c0 1.504.08 2.999.235 4.441a.625.625 0 00.621.558h8.286c.319 0 .587-.24.621-.558.156-1.442.235-2.937.235-4.441s-.08-2.999-.235-4.441a.625.625 0 00-.621-.558z" fill="#000"/><path d="M19.134 10h-8.286a.622.622 0 00-.62.558 41.585 41.585 0 00-.236 4.441c0 1.504.08 2.999.235 4.441a.625.625 0 00.621.558h8.286c.319 0 .587-.24.621-.558.156-1.442.235-2.937.235-4.441s-.08-2.999-.235-4.441a.625.625 0 00-.621-.558z" fill="url(#paint3_linear_280_851)"/><path d="M2.367 8.748h6.307c.305 0 .566-.22.617-.521.46-2.741 1.185-5.052 2.096-6.684a.626.626 0 00-.726-.902 15.12 15.12 0 00-8.843 7.183.626.626 0 00.55.924z" fill="#000"/><path d="M2.367 8.748h6.307c.305 0 .566-.22.617-.521.46-2.741 1.185-5.052 2.096-6.684a.626.626 0 00-.726-.902 15.12 15.12 0 00-8.843 7.183.626.626 0 00.55.924z" fill="url(#paint4_linear_280_851)"/><path d="M8.807 19.792a.624.624 0 00.159-.482A43.18 43.18 0 018.748 15c0-1.425.073-2.876.218-4.311A.624.624 0 008.344 10H1.308a.624.624 0 00-.595.434 14.984 14.984 0 000 9.13.624.624 0 00.595.434h7.036a.624.624 0 00.463-.206z" fill="#000"/><path d="M8.807 19.792a.624.624 0 00.159-.482A43.18 43.18 0 018.748 15c0-1.425.073-2.876.218-4.311A.624.624 0 008.344 10H1.308a.624.624 0 00-.595.434 14.984 14.984 0 000 9.13.624.624 0 00.595.434h7.036a.624.624 0 00.463-.206z" fill="url(#paint5_linear_280_851)"/><path d="M9.29 21.767a.625.625 0 00-.616-.52H2.367a.626.626 0 00-.549.924 15.12 15.12 0 008.843 7.183.627.627 0 00.726-.902c-.91-1.633-1.636-3.944-2.096-6.685z" fill="#000"/><path d="M9.29 21.767a.625.625 0 00-.616-.52H2.367a.626.626 0 00-.549.924 15.12 15.12 0 008.843 7.183.627.627 0 00.726-.902c-.91-1.633-1.636-3.944-2.096-6.685z" fill="url(#paint6_linear_280_851)"/><path d="M27.622 21.246h-6.307a.625.625 0 00-.616.521c-.461 2.741-1.186 5.052-2.097 6.684a.626.626 0 00.726.902 15.12 15.12 0 008.843-7.183.626.626 0 00-.549-.924z" fill="#000"/><path d="M27.622 21.246h-6.307a.625.625 0 00-.616.521c-.461 2.741-1.186 5.052-2.097 6.684a.626.626 0 00.726.902 15.12 15.12 0 008.843-7.183.626.626 0 00-.549-.924z" fill="url(#paint7_linear_280_851)"/><path d="M10.738 8.523a.624.624 0 00.48.225h7.56a.624.624 0 00.614-.738C18.494 3.144 16.77 0 14.998 0c-1.77 0-3.496 3.144-4.394 8.01a.625.625 0 00.134.513z" fill="#000"/><path d="M10.738 8.523a.624.624 0 00.48.225h7.56a.624.624 0 00.614-.738C18.494 3.144 16.77 0 14.998 0c-1.77 0-3.496 3.144-4.394 8.01a.625.625 0 00.134.513z" fill="url(#paint8_linear_280_851)"/><defs><linearGradient id="paint0_linear_280_851" x1="15.04" y1="31.923" x2="16.98" y2="21.611" gradientUnits="userSpaceOnUse"><stop stop-color="#710051"/><stop offset="1" stop-color="#B205A1"/></linearGradient><linearGradient id="paint1_linear_280_851" x1="25.55" y1="22.202" x2="28.018" y2="10.521" gradientUnits="userSpaceOnUse"><stop stop-color="#710051"/><stop offset="1" stop-color="#B205A1"/></linearGradient><linearGradient id="paint2_linear_280_851" x1="23.431" y1="10.541" x2="24.966" y2=".857" gradientUnits="userSpaceOnUse"><stop stop-color="#710051"/><stop offset="1" stop-color="#B205A1"/></linearGradient><linearGradient id="paint3_linear_280_851" x1="15.038" y1="22.202" x2="17.27" y2="10.423" gradientUnits="userSpaceOnUse"><stop stop-color="#710051"/><stop offset="1" stop-color="#B205A1"/></linearGradient><linearGradient id="paint4_linear_280_851" x1="6.649" y1="10.541" x2="8.185" y2=".857" gradientUnits="userSpaceOnUse"><stop stop-color="#710051"/><stop offset="1" stop-color="#B205A1"/></linearGradient><linearGradient id="paint5_linear_280_851" x1="4.526" y1="22.202" x2="6.994" y2="10.521" gradientUnits="userSpaceOnUse"><stop stop-color="#710051"/><stop offset="1" stop-color="#B205A1"/></linearGradient><linearGradient id="paint6_linear_280_851" x1="6.649" y1="31.174" x2="8.185" y2="21.489" gradientUnits="userSpaceOnUse"><stop stop-color="#710051"/><stop offset="1" stop-color="#B205A1"/></linearGradient><linearGradient id="paint7_linear_280_851" x1="23.431" y1="31.174" x2="24.966" y2="21.489" gradientUnits="userSpaceOnUse"><stop stop-color="#710051"/><stop offset="1" stop-color="#B205A1"/></linearGradient><linearGradient id="paint8_linear_280_851" x1="15.04" y1="10.677" x2="16.98" y2=".365" gradientUnits="userSpaceOnUse"><stop stop-color="#710051"/><stop offset="1" stop-color="#B205A1"/></linearGradient></defs></svg>