<svg width="36" height="31" fill="none" xmlns="http://www.w3.org/2000/svg"><path d="M27.471 6.483c.4.4 1.047.4 1.446 0l2.41-2.41a1.022 1.022 0 10-1.446-1.445l-2.41 2.41a1.022 1.022 0 000 1.445z" fill="url(#paint0_linear_280_844)"/><path d="M28.652 9.4c.146.545.707.869 1.252.723l3.292-.882a1.022 1.022 0 00-.529-1.975l-3.292.882a1.022 1.022 0 00-.723 1.252z" fill="url(#paint1_linear_280_844)"/><path d="M24.555 5.302a1.022 1.022 0 001.252-.723l.882-3.292a1.022 1.022 0 10-1.975-.529l-.882 3.292a1.022 1.022 0 00.723 1.252z" fill="url(#paint2_linear_280_844)"/><path d="M33.149 12.27H21.364a1.022 1.022 0 01-.987-1.288l1.187-4.43a2.3 2.3 0 10-4.444-1.19l-.565 2.108a6.475 6.475 0 01-6.255 4.8H7.367v15.676h1.875l.51.682a5.112 5.112 0 004.09 2.044h8.946a2.3 2.3 0 100-4.6h1.363a2.3 2.3 0 100-4.601h1.364a2.3 2.3 0 100-4.6h7.634a2.3 2.3 0 100-4.602z" fill="url(#paint3_linear_280_844)"/><path d="M4.303 10.223H1.577c-.565 0-1.022.457-1.022 1.022v17.722c0 .564.457 1.022 1.022 1.022h2.726c.565 0 1.023-.458 1.023-1.022V11.245c0-.565-.458-1.022-1.023-1.022z" fill="url(#paint4_linear_280_844)"/><defs><linearGradient id="paint0_linear_280_844" x1="29.42" y1="7.765" x2="30.415" y2="2.517" gradientUnits="userSpaceOnUse"><stop stop-color="#710051"/><stop offset="1" stop-color="#B205A1"/></linearGradient><linearGradient id="paint1_linear_280_844" x1="31.311" y1="10.803" x2="31.678" y2="7.269" gradientUnits="userSpaceOnUse"><stop stop-color="#710051"/><stop offset="1" stop-color="#B205A1"/></linearGradient><linearGradient id="paint2_linear_280_844" x1="25.274" y1="6.514" x2="27.285" y2=".695" gradientUnits="userSpaceOnUse"><stop stop-color="#710051"/><stop offset="1" stop-color="#B205A1"/></linearGradient><linearGradient id="paint3_linear_280_844" x1="21.539" y1="36.629" x2="27.358" y2="4.717" gradientUnits="userSpaceOnUse"><stop stop-color="#710051"/><stop offset="1" stop-color="#B205A1"/></linearGradient><linearGradient id="paint4_linear_280_844" x1="2.963" y1="34.347" x2="14.68" y2="19.423" gradientUnits="userSpaceOnUse"><stop stop-color="#710051"/><stop offset="1" stop-color="#B205A1"/></linearGradient></defs></svg>