<svg width="25" height="32" fill="none" xmlns="http://www.w3.org/2000/svg"><path d="M19.608 14c-2.973 0-5.392 2.467-5.392 5.5 0 3.032 2.419 5.5 5.392 5.5C22.58 25 25 22.531 25 19.5c0-3.033-2.42-5.5-5.392-5.5zm2.286 4.617l-1.96 3a.97.97 0 01-1.36.276l-1.471-1a1.012 1.012 0 01-.272-1.386.969.969 0 011.36-.277l.655.445c1.563-2.392 1.48-2.326 1.742-2.479.893-.527 1.88.542 1.306 1.42zm-6.698 6.878V31c0 .766.814 1.249 1.467.868l2.945-1.716 2.945 1.716c.65.38 1.467-.1 1.467-.868v-5.504a7.221 7.221 0 01-8.824 0zm6.373-13.224V2.17c0-1.195-.956-2.17-2.13-2.17H2.13C.955 0 0 .974 0 2.172v23.155C0 26.525.955 27.5 2.13 27.5h11.105c0-4.303-.006-4.037.016-4.235-3.282-5.739 1.944-12.799 8.318-10.993zM5.882 5h8.334a.99.99 0 01.98 1 .99.99 0 01-.98 1H5.882a.99.99 0 01-.98-1c0-.553.439-1 .98-1zm4.902 10H5.882a.99.99 0 01-.98-1c0-.553.439-1 .98-1h4.902a.99.99 0 01.98 1 .99.99 0 01-.98 1zm-4.902-4a.99.99 0 01-.98-1c0-.553.439-1 .98-1h8.334a.99.99 0 01.98 1 .99.99 0 01-.98 1H5.882z" fill="#000"/><path d="M19.608 14c-2.973 0-5.392 2.467-5.392 5.5 0 3.032 2.419 5.5 5.392 5.5C22.58 25 25 22.531 25 19.5c0-3.033-2.42-5.5-5.392-5.5zm2.286 4.617l-1.96 3a.97.97 0 01-1.36.276l-1.471-1a1.012 1.012 0 01-.272-1.386.969.969 0 011.36-.277l.655.445c1.563-2.392 1.48-2.326 1.742-2.479.893-.527 1.88.542 1.306 1.42zm-6.698 6.878V31c0 .766.814 1.249 1.467.868l2.945-1.716 2.945 1.716c.65.38 1.467-.1 1.467-.868v-5.504a7.221 7.221 0 01-8.824 0zm6.373-13.224V2.17c0-1.195-.956-2.17-2.13-2.17H2.13C.955 0 0 .974 0 2.172v23.155C0 26.525.955 27.5 2.13 27.5h11.105c0-4.303-.006-4.037.016-4.235-3.282-5.739 1.944-12.799 8.318-10.993zM5.882 5h8.334a.99.99 0 01.98 1 .99.99 0 01-.98 1H5.882a.99.99 0 01-.98-1c0-.553.439-1 .98-1zm4.902 10H5.882a.99.99 0 01-.98-1c0-.553.439-1 .98-1h4.902a.99.99 0 01.98 1 .99.99 0 01-.98 1zm-4.902-4a.99.99 0 01-.98-1c0-.553.439-1 .98-1h8.334a.99.99 0 01.98 1 .99.99 0 01-.98 1H5.882z" fill="url(#paint0_linear_280_850)"/><defs><linearGradient id="paint0_linear_280_850" x1="12.617" y1="39.055" x2="21.565" y2="2.171" gradientUnits="userSpaceOnUse"><stop stop-color="#710051"/><stop offset="1" stop-color="#B205A1"/></linearGradient></defs></svg>