<svg width="32" height="32" fill="none" xmlns="http://www.w3.org/2000/svg"><path d="M15.667 0a15.667 15.667 0 100 31.333 15.667 15.667 0 000-31.333zM10.23 17.97a1.176 1.176 0 11-1.66 1.66l-3.134-3.133a1.174 1.174 0 010-1.66l3.134-3.134a1.174 1.174 0 111.66 1.66l-2.3 2.305 2.301 2.303zm8.083-5.495l-3.134 7.31a1.175 1.175 0 01-2.159-.927l3.134-7.31a1.174 1.174 0 012.159.927zm7.584 4.022l-3.133 3.133a1.176 1.176 0 11-1.661-1.66l2.301-2.303-2.301-2.303a1.175 1.175 0 111.66-1.661l3.134 3.133a1.171 1.171 0 010 1.661z" fill="#000"/><path d="M15.667 0a15.667 15.667 0 100 31.333 15.667 15.667 0 000-31.333zM10.23 17.97a1.176 1.176 0 11-1.66 1.66l-3.134-3.133a1.174 1.174 0 010-1.66l3.134-3.134a1.174 1.174 0 111.66 1.66l-2.3 2.305 2.301 2.303zm8.083-5.495l-3.134 7.31a1.175 1.175 0 01-2.159-.927l3.134-7.31a1.174 1.174 0 012.159.927zm7.584 4.022l-3.133 3.133a1.176 1.176 0 11-1.661-1.66l2.301-2.303-2.301-2.303a1.175 1.175 0 111.66-1.661l3.134 3.133a1.171 1.171 0 010 1.661z" fill="url(#paint0_linear_280_863)"/><defs><linearGradient id="paint0_linear_280_863" x1="15.813" y1="38.241" x2="22.81" y2="1.326" gradientUnits="userSpaceOnUse"><stop stop-color="#710051"/><stop offset="1" stop-color="#B205A1"/></linearGradient></defs></svg>