<svg width="30" height="30" fill="none" xmlns="http://www.w3.org/2000/svg"><path d="M15 30c8.284 0 15-6.716 15-15 0-8.284-6.716-15-15-15C6.716 0 0 6.716 0 15c0 8.284 6.716 15 15 15z" fill="url(#paint0_linear_280_884)"/><path fill-rule="evenodd" clip-rule="evenodd" d="M11.783 20.607l-3.902-4.25a1.47 1.47 0 01.069-2.045 1.41 1.41 0 012.01.07l3.01 3.277 4.764-4.529a1.42 1.42 0 01.134-.112l2.24-2.13a1.41 1.41 0 012.01.07 1.47 1.47 0 01-.068 2.045l-6.842 6.505-.008-.008-2.366 2.25-1.05-1.143z" fill="#fff"/><defs><linearGradient id="paint0_linear_280_884" x1="15.14" y1="36.614" x2="21.839" y2="1.27" gradientUnits="userSpaceOnUse"><stop stop-color="#710051"/><stop offset="1" stop-color="#B205A1"/></linearGradient></defs></svg>