<svg width="199" height="56" fill="none" xmlns="http://www.w3.org/2000/svg"><path d="M71.232 11.448h2.52L68.472 24h-2.256l-2.256-5.664L61.704 24h-2.256l-5.304-12.552h2.52l4.032 9.984 1.776-4.632-2.16-5.328h2.232l1.416 3.912 1.392-3.912h2.232L65.448 16.8l1.776 4.632 4.008-9.984zm3.057 8.88c0-.8.224-1.496.672-2.088.464-.608 1.096-1.072 1.896-1.392.8-.336 1.728-.504 2.784-.504.56 0 1.128.04 1.704.12.592.08 1.112.208 1.56.384v-.792c0-.88-.264-1.568-.792-2.064s-1.288-.744-2.28-.744c-.704 0-1.368.128-1.992.384-.624.24-1.288.584-1.992 1.032l-.888-1.776c.832-.56 1.664-.976 2.496-1.248a8.669 8.669 0 012.664-.408c1.68 0 3 .448 3.96 1.344.976.88 1.464 2.136 1.464 3.768v4.68c0 .304.048.52.144.648.112.128.296.2.552.216V24a5.794 5.794 0 01-1.128.12c-.56 0-.984-.136-1.272-.408a1.572 1.572 0 01-.504-.96l-.072-.72a5.41 5.41 0 01-2.088 1.632 6.173 6.173 0 01-2.568.576c-.832 0-1.576-.168-2.232-.504a3.983 3.983 0 01-1.536-1.416 3.696 3.696 0 01-.552-1.992zm7.992.768c.192-.208.344-.416.456-.624.112-.208.168-.392.168-.552v-1.44a6.838 6.838 0 00-1.416-.384 7.692 7.692 0 00-1.464-.144c-.96 0-1.744.192-2.352.576-.592.384-.888.912-.888 1.584 0 .368.096.72.288 1.056.208.336.496.608.864.816.384.208.856.312 1.416.312.576 0 1.128-.112 1.656-.336.528-.224.952-.512 1.272-.864zm13.357 2.256a9.395 9.395 0 01-.84.36c-.336.128-.72.24-1.152.336a5.746 5.746 0 01-1.296.144 3.916 3.916 0 01-1.512-.288 2.516 2.516 0 01-1.128-.912c-.272-.432-.408-.984-.408-1.656v-7.848h-1.656v-2.04h1.656V7.32h2.64v4.128h2.736v2.04h-2.736v7.008c.032.432.168.752.408.96.256.208.568.312.936.312.368 0 .72-.064 1.056-.192.336-.128.584-.232.744-.312l.552 2.088zm7.353.888c-.976 0-1.864-.168-2.664-.504a6.567 6.567 0 01-2.04-1.416 6.756 6.756 0 01-1.344-2.064 6.843 6.843 0 01-.456-2.496c0-1.184.272-2.264.816-3.24a6.252 6.252 0 012.28-2.376c.976-.608 2.12-.912 3.432-.912 1.312 0 2.44.304 3.384.912a6.175 6.175 0 012.232 2.352 6.506 6.506 0 01.768 3.696c-.016.16-.032.296-.048.408H99.295c.048.736.248 1.384.6 1.944.368.544.832.976 1.392 1.296.56.304 1.16.456 1.8.456.704 0 1.368-.176 1.992-.528.64-.352 1.072-.816 1.296-1.392l2.256.648c-.272.608-.688 1.16-1.248 1.656a6.322 6.322 0 01-1.944 1.152 7.146 7.146 0 01-2.448.408zm-3.768-7.392h7.584c-.048-.72-.256-1.352-.624-1.896a3.66 3.66 0 00-1.368-1.296 3.53 3.53 0 00-1.824-.48c-.656 0-1.264.16-1.824.48a3.72 3.72 0 00-1.344 1.296c-.352.544-.552 1.176-.6 1.896zm19.409-3.12c-1.024.016-1.936.248-2.736.696a3.8 3.8 0 00-1.68 1.896V24h-2.64V11.448h2.448v2.808c.432-.864 1-1.552 1.704-2.064.704-.528 1.448-.816 2.232-.864h.384c.112 0 .208.008.288.024v2.376zM139.753 24h-2.64v-7.032c0-1.168-.192-2.024-.576-2.568-.384-.544-.944-.816-1.68-.816s-1.424.28-2.064.84c-.624.544-1.064 1.256-1.32 2.136V24h-2.64v-7.032c0-1.168-.192-2.024-.576-2.568-.384-.544-.936-.816-1.656-.816-.736 0-1.424.272-2.064.816-.624.544-1.072 1.256-1.344 2.136V24h-2.64V11.448h2.4v2.52c.496-.88 1.144-1.552 1.944-2.016.816-.48 1.744-.72 2.784-.72 1.04 0 1.856.272 2.448.816a3.47 3.47 0 011.128 2.04c.544-.928 1.208-1.632 1.992-2.112.8-.496 1.712-.744 2.736-.744.736 0 1.352.136 1.848.408.496.272.88.648 1.152 1.128.272.464.464 1.008.576 1.632.128.608.192 1.256.192 1.944V24zm8.73.24c-.976 0-1.864-.168-2.664-.504a6.568 6.568 0 01-2.04-1.416 6.756 6.756 0 01-1.344-2.064 6.843 6.843 0 01-.456-2.496c0-1.184.272-2.264.816-3.24a6.25 6.25 0 012.28-2.376c.976-.608 2.12-.912 3.432-.912 1.312 0 2.44.304 3.384.912a6.175 6.175 0 012.232 2.352 6.506 6.506 0 01.768 3.696c-.016.16-.032.296-.048.408h-10.056c.048.736.248 1.384.6 1.944.368.544.832.976 1.392 1.296.56.304 1.16.456 1.8.456.704 0 1.368-.176 1.992-.528.64-.352 1.072-.816 1.296-1.392l2.256.648c-.272.608-.688 1.16-1.248 1.656a6.322 6.322 0 01-1.944 1.152 7.146 7.146 0 01-2.448.408zm-3.768-7.392h7.584c-.048-.72-.256-1.352-.624-1.896a3.66 3.66 0 00-1.368-1.296 3.53 3.53 0 00-1.824-.48c-.656 0-1.264.16-1.824.48a3.718 3.718 0 00-1.344 1.296c-.352.544-.552 1.176-.6 1.896zM157.092 6.48h2.64v13.896c0 .64.096 1.048.288 1.224.192.176.432.264.72.264.32 0 .616-.032.888-.096.288-.064.536-.144.744-.24l.384 2.088c-.384.16-.84.296-1.368.408-.528.112-1 .168-1.416.168-.896 0-1.6-.248-2.112-.744-.512-.512-.768-1.216-.768-2.112V6.48zm12.835 17.76c-.992 0-1.88-.168-2.664-.504a6.377 6.377 0 01-2.04-1.44 6.615 6.615 0 01-1.296-2.064 6.843 6.843 0 01-.456-2.496c0-.88.152-1.712.456-2.496a6.268 6.268 0 011.296-2.064 6.073 6.073 0 012.04-1.416c.8-.352 1.688-.528 2.664-.528.976 0 1.856.176 2.64.528.8.336 1.48.808 2.04 1.416a6.078 6.078 0 011.32 2.064c.304.784.456 1.616.456 2.496 0 .88-.152 1.712-.456 2.496a6.404 6.404 0 01-1.32 2.064 6.044 6.044 0 01-2.04 1.44c-.784.336-1.664.504-2.64.504zm-3.744-6.48c0 .8.168 1.52.504 2.16.336.64.784 1.144 1.344 1.512.56.368 1.192.552 1.896.552.688 0 1.312-.184 1.872-.552a4.1 4.1 0 001.368-1.536 4.668 4.668 0 00.504-2.16c0-.8-.168-1.52-.504-2.16a3.911 3.911 0 00-1.368-1.512 3.236 3.236 0 00-1.872-.576c-.704 0-1.336.192-1.896.576a4.18 4.18 0 00-1.344 1.536c-.336.624-.504 1.344-.504 2.16zM189.981 24h-2.64v-7.032c0-1.168-.192-2.024-.576-2.568-.368-.544-.92-.816-1.656-.816-.512 0-1.024.128-1.536.384a4.669 4.669 0 00-1.344 1.056c-.4.432-.688.936-.864 1.512V24h-2.64V11.448h2.4v2.52a4.89 4.89 0 011.248-1.44 5.956 5.956 0 011.776-.96 6.417 6.417 0 012.088-.336c.752 0 1.368.136 1.848.408.496.272.88.648 1.152 1.128.288.464.48 1.008.576 1.632.112.608.168 1.256.168 1.944V24zM59.84 46h-3.56c-.187 0-.28-.093-.28-.28v-.7c0-.173.093-.26.28-.26h3.36c1.04 0 1.56-.387 1.56-1.16v-.38c0-.707-.34-1.193-1.02-1.46l-2.36-1c-.68-.28-1.167-.607-1.46-.98-.293-.387-.44-.893-.44-1.52 0-1.64.9-2.46 2.7-2.46h3.28c.187 0 .28.093.28.28v.7c0 .173-.093.26-.28.26h-3.02c-.48 0-.847.1-1.1.3-.24.2-.36.433-.36.7v.34c0 .56.38.987 1.14 1.28l2.36 1.06c.693.267 1.16.62 1.4 1.06.253.44.38 1.047.38 1.82 0 1.6-.953 2.4-2.86 2.4zm9.672 0h-1.72c-.92 0-1.646-.26-2.18-.78-.52-.52-.78-1.247-.78-2.18v-4.28c0-.933.26-1.66.78-2.18.534-.52 1.26-.78 2.18-.78h1.72c.92 0 1.64.26 2.16.78.534.52.8 1.247.8 2.18v4.28c0 .933-.266 1.66-.8 2.18-.52.52-1.24.78-2.16.78zm-1.56-1.28h1.4c1.12 0 1.68-.573 1.68-1.72v-4.2c0-1.147-.56-1.72-1.68-1.72h-1.4c-1.12 0-1.68.573-1.68 1.72V43c0 1.147.56 1.72 1.68 1.72zm9.64-8.92h1.76c.2 0 .3.087.3.26v.74c0 .187-.1.28-.3.28h-1.76c-.12 0-.18.06-.18.18v8.46c0 .187-.1.28-.3.28h-.88c-.186 0-.28-.093-.28-.28v-8.46c0-.12-.066-.18-.2-.18h-1.18c-.186 0-.28-.093-.28-.28v-.74c0-.173.094-.26.28-.26h1.18c.134 0 .2-.06.2-.18v-.74c0-.947.234-1.673.7-2.18.467-.507 1.147-.76 2.04-.76h.68c.187 0 .28.087.28.26v.74c0 .187-.093.28-.28.28h-.5c-.546 0-.926.14-1.14.42-.213.267-.32.7-.32 1.3v.68c0 .12.06.18.18.18zm4.188 1.28h-1.1c-.187 0-.28-.087-.28-.26v-.74c0-.187.093-.28.28-.28h1.1c.133 0 .2-.06.2-.18V33.9c0-.187.093-.28.28-.28h.9c.173 0 .26.093.26.28v1.72c0 .12.073.18.22.18h2.12c.2 0 .3.093.3.28v.74c0 .173-.1.26-.3.26h-2.12c-.147 0-.22.06-.22.18v5.76c0 1.133.586 1.7 1.76 1.7h.78c.2 0 .3.093.3.28v.74c0 .173-.1.26-.3.26H85c-.92 0-1.654-.253-2.2-.76-.547-.52-.82-1.24-.82-2.16v-5.82c0-.12-.067-.18-.2-.18zM91.531 46h-1.22c-.186 0-.3-.093-.34-.28l-2.56-9.64c-.04-.187.027-.28.2-.28h1.02c.173 0 .28.093.32.28l1.94 8.16h.12l2.06-8.16c.04-.187.147-.28.32-.28h.92c.187 0 .307.093.36.28l2 8.16h.12l1.96-8.16c.04-.187.147-.28.32-.28h1.02c.174 0 .24.093.2.28l-2.56 9.64c-.04.187-.153.28-.34.28h-1.24c-.173 0-.28-.093-.32-.28l-1.94-7.96h-.1l-1.92 7.96c-.04.187-.153.28-.34.28zm14.351 0h-1.04c-.92 0-1.647-.26-2.18-.78-.52-.52-.78-1.247-.78-2.18v-4.28c0-.933.26-1.66.78-2.18.533-.52 1.26-.78 2.18-.78h4.34c.187 0 .28.093.28.28v9.64c0 .187-.093.28-.28.28h-.9c-.187 0-.28-.093-.28-.28v-.78h-.08c-.333.707-1.013 1.06-2.04 1.06zm2.12-3.12v-5.62c0-.12-.067-.18-.2-.18h-2.8c-1.107 0-1.66.58-1.66 1.74v4.16c0 1.16.553 1.74 1.66 1.74h1.14c.6 0 1.06-.16 1.38-.48.32-.32.48-.773.48-1.36zM113.4 46h-.9c-.187 0-.28-.093-.28-.28v-9.64c0-.187.093-.28.28-.28h.9c.187 0 .28.093.28.28v.8h.08c.133-.293.387-.547.76-.76.373-.213.813-.32 1.32-.32h.78c.173 0 .26.093.26.28v.74a.36.36 0 01-.06.22c-.04.04-.107.053-.2.04h-1.08c-.6 0-1.06.18-1.38.54-.32.36-.48.853-.48 1.48v6.62c0 .187-.093.28-.28.28zm12.285 0h-4.24c-.92 0-1.647-.26-2.18-.78-.52-.52-.78-1.247-.78-2.18v-4.28c0-.933.26-1.66.78-2.18.533-.52 1.26-.78 2.18-.78h1.68c.92 0 1.64.26 2.16.78.52.52.78 1.247.78 2.18v2.54c0 .2-.094.3-.28.3h-5.66c-.134 0-.2.06-.2.18V43c0 1.16.56 1.74 1.68 1.74h4.08c.186 0 .28.093.28.28v.72c0 .173-.094.26-.28.26zm-5.56-5.46h4.32c.133 0 .2-.067.2-.2V38.8c0-1.147-.56-1.72-1.68-1.72h-1.36c-1.12 0-1.68.573-1.68 1.72v1.54c0 .133.066.2.2.2z" fill="#3F3D56"/><path d="M31.904 36.66l5.851 10.004 10.78-18.66-16.63 8.655z" fill="url(#paint0_linear_502_131)"/><path d="M31.912 19.448l16.642 8.557-16.63 8.656-.012-17.213z" fill="url(#paint1_linear_502_131)"/><path d="M37.74 9.33l-5.843 10.116 16.642 8.557L37.74 9.331z" fill="url(#paint2_linear_502_131)"/><path d="M16.15 9.33l15.73 10.125 5.843-10.116L16.15 9.33z" fill="url(#paint3_linear_502_131)"/><path d="M16.994 28.052l-.815-18.724 15.73 10.125-14.915 8.599z" fill="url(#paint4_linear_502_131)"/><path d="M5.39 27.985l11.593.062-.815-18.723-10.779 18.66z" fill="url(#paint5_linear_502_131)"/><path d="M16.182 46.65l.798-18.61-11.592-.063L16.182 46.65z" fill="url(#paint6_linear_502_131)"/><path d="M31.92 36.66l-15.726 9.993.8-18.608L31.92 36.66z" fill="url(#paint7_linear_502_131)"/><path d="M37.765 46.67l-21.578-.012 15.727-9.994 5.85 10.005z" fill="url(#paint8_linear_502_131)"/><defs><linearGradient id="paint0_linear_502_131" x1="33.392" y1="44.146" x2="44.164" y2="25.48" gradientUnits="userSpaceOnUse"><stop stop-color="#A9208B"/><stop offset="1" stop-color="#492683"/></linearGradient><linearGradient id="paint1_linear_502_131" x1="32.551" y1="37.025" x2="40.455" y2="23.33" gradientUnits="userSpaceOnUse"><stop stop-color="#F71475"/><stop offset="1" stop-color="#C9156C"/></linearGradient><linearGradient id="paint2_linear_502_131" x1="39.991" y1="24.118" x2="45.831" y2="13.999" gradientUnits="userSpaceOnUse"><stop stop-color="#F71475"/><stop offset="1" stop-color="#FA7DA3"/></linearGradient><linearGradient id="paint3_linear_502_131" x1="23.789" y1="14.786" x2="29.628" y2="4.667" gradientUnits="userSpaceOnUse"><stop stop-color="#F5A630"/><stop offset="1" stop-color="#D81B12"/></linearGradient><linearGradient id="paint4_linear_502_131" x1="16.363" y1="27.69" x2="24.266" y2="13.995" gradientUnits="userSpaceOnUse"><stop stop-color="#FB9600"/><stop offset="1" stop-color="#FEBD00"/></linearGradient><linearGradient id="paint5_linear_502_131" x1="9.751" y1="30.502" x2="20.523" y2="11.836" gradientUnits="userSpaceOnUse"><stop stop-color="#F8E7C5"/><stop offset="1" stop-color="#FEBD00"/></linearGradient><linearGradient id="paint6_linear_502_131" x1="8.092" y1="41.98" x2="16.349" y2="27.678" gradientUnits="userSpaceOnUse"><stop stop-color="#B4E4E1"/><stop offset="1" stop-color="#2BC9BF"/></linearGradient><linearGradient id="paint7_linear_502_131" x1="16.195" y1="46.654" x2="24.449" y2="32.35" gradientUnits="userSpaceOnUse"><stop stop-color="#049D94"/><stop offset="1" stop-color="#08CEC1"/></linearGradient><linearGradient id="paint8_linear_502_131" x1="24.281" y1="51.329" x2="32.535" y2="37.025" gradientUnits="userSpaceOnUse"><stop stop-color="#0C7069"/><stop offset="1" stop-color="#32AFA7"/></linearGradient></defs></svg>