<svg width="53" height="51" fill="none" xmlns="http://www.w3.org/2000/svg"><g fill-rule="evenodd" clip-rule="evenodd"><path d="M28.688 1.075v20.949h22.954c.322 0 .6-.127.811-.37a1.04 1.04 0 00.252-.855C51.087 9.39 41.535.535 29.812 0a1.039 1.039 0 00-.791.297c-.22.21-.332.472-.332.777z" fill="#E2E2E2"/><path d="M30.906 26.453l14.165 14.165c.215.215.48.321.785.314a1.04 1.04 0 00.768-.35 24.175 24.175 0 006.088-12.904 1.04 1.04 0 00-.252-.855 1.04 1.04 0 00-.811-.37H30.906z" fill="#E7A6E8"/><path d="M40.605 44.002a24.174 24.174 0 01-16.343 6.33C10.862 50.331 0 39.468 0 26.07 0 13.046 10.26 2.42 23.139 1.833c.304-.014.57.087.79.297.22.21.333.472.333.777V26.07L40.64 42.448c.216.215.322.48.315.785a1.039 1.039 0 01-.35.769z" fill="url(#paint0_linear_280_1164)"/><path d="M40.605 44.002a24.174 24.174 0 01-16.343 6.33C10.862 50.331 0 39.468 0 26.07 0 13.046 10.26 2.42 23.139 1.833c.304-.014.57.087.79.297.22.21.333.472.333.777V26.07L40.64 42.448c.216.215.322.48.315.785a1.039 1.039 0 01-.35.769z" fill="url(#paint1_linear_280_1164)"/></g><defs><linearGradient id="paint0_linear_280_1164" x1="5.99" y1="43.238" x2="39.818" y2="14.672" gradientUnits="userSpaceOnUse"><stop stop-color="#FD346E"/><stop offset="1" stop-color="#FF6491"/></linearGradient><linearGradient id="paint1_linear_280_1164" x1="20.669" y1="61.024" x2="33.317" y2="4.671" gradientUnits="userSpaceOnUse"><stop stop-color="#BC35EC"/><stop offset="1" stop-color="#F572D8"/></linearGradient></defs></svg>