<svg width="55" height="48" fill="none" xmlns="http://www.w3.org/2000/svg"><rect width="43.501" height="32.124" rx="5" fill="#FAEDDC"/><g filter="url(#filter0_d_280_1060)"><path d="M49.94 24.73c0-.318-.185-.573-.491-.637l-3.125-.572c-.183-.509-.367-1.018-.674-1.527l1.716-2.48c.184-.255.122-.637-.061-.828-.062-.063-2.267-2.163-2.451-2.29-.184-.127-.368-.19-.613-.127-.122.064-.184.064-.245.127l-2.328 1.527c-.061.064-.123.064-.184.127a7.021 7.021 0 00-1.47-.572l-.613-2.99a.602.602 0 00-.613-.509h-3.37c-.306 0-.55.255-.612.573l-.613 2.926c-.551.19-1.102.381-1.593.636a59.18 59.18 0 00-2.512-1.59l-.122-.128v.064c-.368-.19-.429-.127-.613-.064 0 .064-.122.127-.122.191l-2.328 2.227a.631.631 0 000 .89c.183.255.735 1.018 1.164 1.654l.49.827c-.245.509-.49 1.018-.613 1.527l-3.063.572c-.307.064-.49.318-.49.637v3.307c0 .255.122.446.306.573.123.064.184.127.306.064l3.002.572c.123.382.307.89.674 1.527-.857 1.272-1.348 1.972-1.593 2.417-.06 0-.06.064-.122.127-.184.382-.184.446-.061.636.06.128.122.191.245.255.428.382 2.205 2.1 2.328 2.226.184.127.367.191.613.127a.458.458 0 00.245-.127l2.512-1.717c.49.254.98.445 1.47.572l.613 2.99a.602.602 0 00.612.509h3.37c.306 0 .551-.19.613-.509l.612-2.99c.552-.19 1.103-.381 1.593-.636l2.635 1.718c.245.127.551.127.735-.064l2.39-2.354c.245-.19.245-.572.06-.827l-1.715-2.48c.245-.51.49-1.018.613-1.527l3.063-.573c.307-.063.49-.318.49-.636l-.06-3.371zm-12.744 7.252c-3.003 0-5.392-2.036-5.637-5.408v-.127c0-2.735 2.083-5.089 4.901-5.47 3.248-.382 6.31 2.035 6.31 5.47 0 3.054-2.572 5.535-5.575 5.535z" fill="url(#paint0_linear_280_1060)"/><path d="M49.94 24.73c0-.318-.185-.573-.491-.637l-3.125-.572c-.183-.509-.367-1.018-.674-1.527l1.716-2.48c.184-.255.122-.637-.061-.828-.062-.063-2.267-2.163-2.451-2.29-.184-.127-.368-.19-.613-.127-.122.064-.184.064-.245.127l-2.328 1.527c-.061.064-.123.064-.184.127a7.021 7.021 0 00-1.47-.572l-.613-2.99a.602.602 0 00-.613-.509h-3.37c-.306 0-.55.255-.612.573l-.613 2.926c-.551.19-1.102.381-1.593.636a59.18 59.18 0 00-2.512-1.59l-.122-.128v.064c-.368-.19-.429-.127-.613-.064 0 .064-.122.127-.122.191l-2.328 2.227a.631.631 0 000 .89c.183.255.735 1.018 1.164 1.654l.49.827c-.245.509-.49 1.018-.613 1.527l-3.063.572c-.307.064-.49.318-.49.637v3.307c0 .255.122.446.306.573.123.064.184.127.306.064l3.002.572c.123.382.307.89.674 1.527-.857 1.272-1.348 1.972-1.593 2.417-.06 0-.06.064-.122.127-.184.382-.184.446-.061.636.06.128.122.191.245.255.428.382 2.205 2.1 2.328 2.226.184.127.367.191.613.127a.458.458 0 00.245-.127l2.512-1.717c.49.254.98.445 1.47.572l.613 2.99a.602.602 0 00.612.509h3.37c.306 0 .551-.19.613-.509l.612-2.99c.552-.19 1.103-.381 1.593-.636l2.635 1.718c.245.127.551.127.735-.064l2.39-2.354c.245-.19.245-.572.06-.827l-1.715-2.48c.245-.51.49-1.018.613-1.527l3.063-.573c.307-.063.49-.318.49-.636l-.06-3.371zm-12.744 7.252c-3.003 0-5.392-2.036-5.637-5.408v-.127c0-2.735 2.083-5.089 4.901-5.47 3.248-.382 6.31 2.035 6.31 5.47 0 3.054-2.572 5.535-5.575 5.535z" fill="url(#paint1_linear_280_1060)"/></g><path d="M8.224 14.71l-.766-2.165a8.213 8.213 0 01-.146-.4 8.702 8.702 0 01-.142-.498 6.903 6.903 0 01-.146.508 6.012 6.012 0 01-.141.4l-.761 2.156h2.102zm2.459 2.689H9.546a.522.522 0 01-.312-.088.572.572 0 01-.176-.234l-.478-1.352H5.76l-.477 1.352a.574.574 0 01-.171.224.476.476 0 01-.307.098H3.658l2.766-7.078h1.498l2.76 7.078zm3.96-3.557c.458 0 .793-.11 1.005-.331.214-.221.321-.524.321-.907a1.33 1.33 0 00-.082-.479.903.903 0 00-.244-.37 1.058 1.058 0 00-.41-.24 1.872 1.872 0 00-.59-.082h-.927v2.41h.927zm0-3.521c.484 0 .902.056 1.253.17.355.114.646.274.873.478.228.202.396.443.503.722.11.28.166.584.166.912 0 .348-.057.667-.171.957a1.956 1.956 0 01-.517.746c-.231.208-.522.37-.873.488-.352.114-.763.17-1.234.17h-.927V17.4h-1.464v-7.08h2.39zm6.114 7.078h-1.473V10.32h1.473v7.078z" fill="#7C6957"/><circle cx="1.338" cy="1.338" r="1.338" transform="matrix(1 0 0 -1 2.678 5.354)" fill="#000" fill-opacity=".1"/><circle cx="1.338" cy="1.338" r="1.338" transform="matrix(1 0 0 -1 6.693 5.354)" fill="#000" fill-opacity=".1"/><circle cx="1.338" cy="1.338" r="1.338" transform="matrix(1 0 0 -1 10.709 5.354)" fill="#000" fill-opacity=".1"/><defs><linearGradient id="paint0_linear_280_1060" x1="28.136" y1="35.323" x2="45.818" y2="17.209" gradientUnits="userSpaceOnUse"><stop stop-color="#FD346E"/><stop offset="1" stop-color="#FF6491"/></linearGradient><linearGradient id="paint1_linear_280_1060" x1="55.961" y1="5.115" x2="19.503" y2="36.791" gradientUnits="userSpaceOnUse"><stop stop-color="#AB601B"/><stop offset="1" stop-color="#733B08"/></linearGradient><filter id="filter0_d_280_1060" x="19.391" y="12.979" width="35.61" height="35" filterUnits="userSpaceOnUse" color-interpolation-filters="sRGB"><feFlood flood-opacity="0" result="BackgroundImageFix"/><feColorMatrix in="SourceAlpha" values="0 0 0 0 0 0 0 0 0 0 0 0 0 0 0 0 0 0 127 0" result="hardAlpha"/><feOffset dy="4"/><feGaussianBlur stdDeviation="2.5"/><feComposite in2="hardAlpha" operator="out"/><feColorMatrix values="0 0 0 0 0 0 0 0 0 0 0 0 0 0 0 0 0 0 0.09 0"/><feBlend in2="BackgroundImageFix" result="effect1_dropShadow_280_1060"/><feBlend in="SourceGraphic" in2="effect1_dropShadow_280_1060" result="shape"/></filter></defs></svg>