<svg width="127" height="125" fill="none" xmlns="http://www.w3.org/2000/svg"><ellipse cx="63.5" cy="62.5" rx="63.5" ry="62.5" fill="#AA64BB" fill-opacity=".12"/><ellipse cx="63.111" cy="62.415" rx="47.111" ry="46.356" fill="#fff"/><path d="M42 60.287c15.703 3.434 16.866 18.76 16.866 18.76s1.163-15.326 16.865-18.76c-15.702-3.433-16.865-18.76-16.865-18.76S57.703 56.854 42 60.287z" fill="#000"/><path d="M42 60.287c15.703 3.434 16.866 18.76 16.866 18.76s1.163-15.326 16.865-18.76c-15.702-3.433-16.865-18.76-16.865-18.76S57.703 56.854 42 60.287z" fill="url(#paint0_linear_565_224)"/><path d="M42 60.287c15.703 3.434 16.866 18.76 16.866 18.76s1.163-15.326 16.865-18.76c-15.702-3.433-16.865-18.76-16.865-18.76S57.703 56.854 42 60.287z" fill="url(#paint1_linear_565_224)"/><path d="M65.46 74.714a11.91 11.91 0 016.446 3.518 11.586 11.586 0 013.088 6.584 11.586 11.586 0 013.088-6.584 11.91 11.91 0 016.445-3.518 11.91 11.91 0 01-6.445-3.517 11.586 11.586 0 01-3.088-6.584 11.586 11.586 0 01-3.088 6.584 11.91 11.91 0 01-6.445 3.517z" fill="#000"/><path d="M65.46 74.714a11.91 11.91 0 016.446 3.518 11.586 11.586 0 013.088 6.584 11.586 11.586 0 013.088-6.584 11.91 11.91 0 016.445-3.518 11.91 11.91 0 01-6.445-3.517 11.586 11.586 0 01-3.088-6.584 11.586 11.586 0 01-3.088 6.584 11.91 11.91 0 01-6.445 3.517z" fill="url(#paint2_linear_565_224)"/><path d="M65.46 74.714a11.91 11.91 0 016.446 3.518 11.586 11.586 0 013.088 6.584 11.586 11.586 0 013.088-6.584 11.91 11.91 0 016.445-3.518 11.91 11.91 0 01-6.445-3.517 11.586 11.586 0 01-3.088-6.584 11.586 11.586 0 01-3.088 6.584 11.91 11.91 0 01-6.445 3.517z" fill="url(#paint3_linear_565_224)"/><defs><linearGradient id="paint0_linear_565_224" x1="58.866" y1="41.527" x2="58.866" y2="79.047" gradientUnits="userSpaceOnUse"><stop stop-color="#4E073A"/><stop offset="1" stop-color="#B11385"/></linearGradient><linearGradient id="paint1_linear_565_224" x1="64.049" y1="-1.284" x2="19.433" y2="13.562" gradientUnits="userSpaceOnUse"><stop stop-color="#FF7EF2"/><stop offset=".767" stop-color="#51168D"/><stop offset="1" stop-color="#E751A2"/></linearGradient><linearGradient id="paint2_linear_565_224" x1="74.994" y1="64.613" x2="74.994" y2="84.816" gradientUnits="userSpaceOnUse"><stop stop-color="#4E073A"/><stop offset="1" stop-color="#B11385"/></linearGradient><linearGradient id="paint3_linear_565_224" x1="77.923" y1="41.56" x2="52.959" y2="50.28" gradientUnits="userSpaceOnUse"><stop stop-color="#FF7EF2"/><stop offset=".767" stop-color="#51168D"/><stop offset="1" stop-color="#E751A2"/></linearGradient></defs></svg>