<svg width="66" height="56" fill="none" xmlns="http://www.w3.org/2000/svg"><rect width="51.493" height="38.026" rx="5" fill="#CCEDFF"/><g filter="url(#filter0_d_280_1074)"><path d="M60.916 27.324c0-.433-.25-.78-.667-.867l-4.253-.78c-.25-.693-.5-1.387-.917-2.08l2.335-3.38c.25-.347.167-.867-.084-1.127-.083-.087-3.085-2.948-3.335-3.12-.25-.174-.5-.26-.834-.174-.167.086-.25.086-.334.173l-3.168 2.08c-.084.087-.167.087-.25.174a9.548 9.548 0 00-2.002-.78l-.834-4.074a.82.82 0 00-.834-.694h-4.586c-.417 0-.75.347-.834.78l-.834 3.988c-.75.26-1.501.52-2.168.866-1.835-1.213-2.835-1.82-3.42-2.167l-.166-.173v.087c-.5-.26-.584-.174-.834-.087 0 .087-.167.173-.167.26l-3.168 3.034a.86.86 0 000 1.213c.25.347 1 1.387 1.584 2.254l.667 1.127c-.333.693-.667 1.387-.834 2.08l-4.17.78c-.416.087-.666.434-.666.867v4.507c0 .347.166.607.416.78.167.087.25.174.418.087l4.086.78c.166.52.417 1.214.917 2.08-1.168 1.734-1.835 2.688-2.168 3.294-.084 0-.084.087-.167.174-.25.52-.25.607-.083.867.083.173.166.26.333.346.584.52 3.002 2.86 3.169 3.034.25.173.5.26.834.173.083 0 .25-.086.333-.173l3.42-2.34a9.553 9.553 0 002 .78l.835 4.074a.82.82 0 00.834.693h4.586a.82.82 0 00.834-.693l.834-4.074c.75-.26 1.5-.52 2.168-.867l3.586 2.34c.333.174.75.174 1-.086l3.253-3.207c.333-.26.333-.78.083-1.127l-2.335-3.38c.334-.694.667-1.388.834-2.081l4.17-.78c.416-.087.667-.433.667-.867l-.084-4.594zm-17.345 9.881c-4.086 0-7.338-2.773-7.672-7.367v-.174c0-3.727 2.835-6.934 6.672-7.454 4.42-.52 8.589 2.774 8.589 7.454 0 4.161-3.503 7.541-7.589 7.541z" fill="url(#paint0_linear_280_1074)"/><path d="M60.916 27.324c0-.433-.25-.78-.667-.867l-4.253-.78c-.25-.693-.5-1.387-.917-2.08l2.335-3.38c.25-.347.167-.867-.084-1.127-.083-.087-3.085-2.948-3.335-3.12-.25-.174-.5-.26-.834-.174-.167.086-.25.086-.334.173l-3.168 2.08c-.084.087-.167.087-.25.174a9.548 9.548 0 00-2.002-.78l-.834-4.074a.82.82 0 00-.834-.694h-4.586c-.417 0-.75.347-.834.78l-.834 3.988c-.75.26-1.501.52-2.168.866-1.835-1.213-2.835-1.82-3.42-2.167l-.166-.173v.087c-.5-.26-.584-.174-.834-.087 0 .087-.167.173-.167.26l-3.168 3.034a.86.86 0 000 1.213c.25.347 1 1.387 1.584 2.254l.667 1.127c-.333.693-.667 1.387-.834 2.08l-4.17.78c-.416.087-.666.434-.666.867v4.507c0 .347.166.607.416.78.167.087.25.174.418.087l4.086.78c.166.52.417 1.214.917 2.08-1.168 1.734-1.835 2.688-2.168 3.294-.084 0-.084.087-.167.174-.25.52-.25.607-.083.867.083.173.166.26.333.346.584.52 3.002 2.86 3.169 3.034.25.173.5.26.834.173.083 0 .25-.086.333-.173l3.42-2.34a9.553 9.553 0 002 .78l.835 4.074a.82.82 0 00.834.693h4.586a.82.82 0 00.834-.693l.834-4.074c.75-.26 1.5-.52 2.168-.867l3.586 2.34c.333.174.75.174 1-.086l3.253-3.207c.333-.26.333-.78.083-1.127l-2.335-3.38c.334-.694.667-1.388.834-2.081l4.17-.78c.416-.087.667-.433.667-.867l-.084-4.594zm-17.345 9.881c-4.086 0-7.338-2.773-7.672-7.367v-.174c0-3.727 2.835-6.934 6.672-7.454 4.42-.52 8.589 2.774 8.589 7.454 0 4.161-3.503 7.541-7.589 7.541z" fill="url(#paint1_linear_280_1074)"/></g><g stroke-linecap="round"><path d="M19.633 8.266l4.133 4.65-4.133 4.65m-8.263-.001l-4.134-4.65 4.133-4.65" stroke="#1A9FFF" stroke-width="2.5"/><path d="M17.07 6.198l-3.632 13.434" stroke="#9EACC2" stroke-width="1.5"/></g><defs><linearGradient id="paint0_linear_280_1074" x1="31.24" y1="41.758" x2="55.335" y2="17.103" gradientUnits="userSpaceOnUse"><stop stop-color="#FD346E"/><stop offset="1" stop-color="#FF6491"/></linearGradient><linearGradient id="paint1_linear_280_1074" x1="61" y1="15.472" x2="26.568" y2="36.506" gradientUnits="userSpaceOnUse"><stop stop-color="#9DD6FF"/><stop offset="1" stop-color="#0094FF"/></linearGradient><filter id="filter0_d_280_1074" x="21.143" y="11.675" width="44.857" height="44.065" filterUnits="userSpaceOnUse" color-interpolation-filters="sRGB"><feFlood flood-opacity="0" result="BackgroundImageFix"/><feColorMatrix in="SourceAlpha" values="0 0 0 0 0 0 0 0 0 0 0 0 0 0 0 0 0 0 127 0" result="hardAlpha"/><feOffset dy="4"/><feGaussianBlur stdDeviation="2.5"/><feComposite in2="hardAlpha" operator="out"/><feColorMatrix values="0 0 0 0 0 0 0 0 0 0 0 0 0 0 0 0 0 0 0.09 0"/><feBlend in2="BackgroundImageFix" result="effect1_dropShadow_280_1074"/><feBlend in="SourceGraphic" in2="effect1_dropShadow_280_1074" result="shape"/></filter></defs></svg>