<svg width="54" height="64" fill="none" xmlns="http://www.w3.org/2000/svg"><path fill-rule="evenodd" clip-rule="evenodd" d="M31.709 21.374v23.264l-3.744 1.552-1.574 2.377c-.242.37-.654.593-1.096.594h-4.153a1.31 1.31 0 01-1.096-.594L18.47 46.19l-5.627-2.331-2.794.57a1.322 1.322 0 01-1.196-.354L5.92 41.14a1.321 1.321 0 01-.355-1.196l.57-2.794-2.33-5.627-2.378-1.575a1.312 1.312 0 01-.594-1.096V24.7c0-.443.224-.855.594-1.096l2.378-1.575 2.33-5.627-.57-2.794c-.09-.433.044-.882.355-1.197L8.854 9.48a1.322 1.322 0 011.196-.355l2.794.571 5.627-2.33 1.575-2.378a1.31 1.31 0 011.096-.594h4.153c.442 0 .854.224 1.096.594l1.196 1.806 4.122 14.58z" fill="#DEE9E5"/><path fill-rule="evenodd" clip-rule="evenodd" d="M31.706 22.144v13.6a12.35 12.35 0 11-8.49-21.319c.831 0 1.662.083 2.477.247a10.035 10.035 0 006.013 7.472z" fill="#AABDA7"/><g filter="url(#filter0_d_280_1153)"><path d="M43.796 1.185a1.006 1.006 0 00-1.015-.087.933.933 0 00-.54.83v10.321a.925.925 0 01-.53.836l-4.828 2.32c-.274.13-.595.13-.869 0l-4.827-2.32a.925.925 0 01-.53-.836V1.928a.933.933 0 00-.54-.83 1.006 1.006 0 00-1.015.087 12.765 12.765 0 00-2.636 2.46 11.727 11.727 0 00-2.568 7.324c0 .722.067 1.443.203 2.153.76 4.027 3.591 7.41 7.52 8.985v27.846c0 2.563 2.162 4.641 4.828 4.641 2.666 0 4.827-2.078 4.827-4.64V22.106c4.195-1.68 7.117-5.41 7.64-9.75.523-4.341-1.436-8.614-5.12-11.172zm-6.382 48.768c0 .513-.432.928-.965.928-.533 0-.966-.415-.966-.928V47.17c0-.513.433-.929.966-.929.533 0 .965.416.965.929v2.784z" fill="url(#paint0_linear_280_1153)"/><path d="M43.796 1.185a1.006 1.006 0 00-1.015-.087.933.933 0 00-.54.83v10.321a.925.925 0 01-.53.836l-4.828 2.32c-.274.13-.595.13-.869 0l-4.827-2.32a.925.925 0 01-.53-.836V1.928a.933.933 0 00-.54-.83 1.006 1.006 0 00-1.015.087 12.765 12.765 0 00-2.636 2.46 11.727 11.727 0 00-2.568 7.324c0 .722.067 1.443.203 2.153.76 4.027 3.591 7.41 7.52 8.985v27.846c0 2.563 2.162 4.641 4.828 4.641 2.666 0 4.827-2.078 4.827-4.64V22.106c4.195-1.68 7.117-5.41 7.64-9.75.523-4.341-1.436-8.614-5.12-11.172zm-6.382 48.768c0 .513-.432.928-.965.928-.533 0-.966-.415-.966-.928V47.17c0-.513.433-.929.966-.929.533 0 .965.416.965.929v2.784z" fill="url(#paint1_linear_280_1153)"/></g><defs><linearGradient id="paint0_linear_280_1153" x1="27.57" y1="46.756" x2="56.698" y2="33.114" gradientUnits="userSpaceOnUse"><stop stop-color="#FD346E"/><stop offset="1" stop-color="#FF6491"/></linearGradient><linearGradient id="paint1_linear_280_1153" x1="44.59" y1="-3.41" x2="-7.84" y2="31.928" gradientUnits="userSpaceOnUse"><stop stop-color="#109D04"/><stop offset="1" stop-color="#F1DC1E"/></linearGradient><filter id="filter0_d_280_1153" x="18.898" y="0" width="35.101" height="63.594" filterUnits="userSpaceOnUse" color-interpolation-filters="sRGB"><feFlood flood-opacity="0" result="BackgroundImageFix"/><feColorMatrix in="SourceAlpha" values="0 0 0 0 0 0 0 0 0 0 0 0 0 0 0 0 0 0 127 0" result="hardAlpha"/><feOffset dy="4"/><feGaussianBlur stdDeviation="2.5"/><feComposite in2="hardAlpha" operator="out"/><feColorMatrix values="0 0 0 0 0 0 0 0 0 0 0 0 0 0 0 0 0 0 0.09 0"/><feBlend in2="BackgroundImageFix" result="effect1_dropShadow_280_1153"/><feBlend in="SourceGraphic" in2="effect1_dropShadow_280_1153" result="shape"/></filter></defs></svg>