<svg width="127" height="125" fill="none" xmlns="http://www.w3.org/2000/svg"><ellipse cx="63.5" cy="62.5" rx="63.5" ry="62.5" fill="#AA64BB" fill-opacity=".12"/><ellipse cx="63.111" cy="62.415" rx="47.111" ry="46.356" fill="#fff"/><path d="M63.513 41c-4.453 0-8.805 1.3-12.508 3.733a22.234 22.234 0 00-8.291 9.942 21.823 21.823 0 00-1.281 12.799 22.045 22.045 0 006.16 11.342 22.629 22.629 0 0011.528 6.063c4.367.854 8.894.416 13.007-1.261a22.438 22.438 0 0010.104-8.159 21.9 21.9 0 003.794-12.307c0-2.909-.582-5.79-1.714-8.477a22.133 22.133 0 00-4.88-7.187 22.543 22.543 0 00-7.304-4.802A22.833 22.833 0 0063.513 41zm-7.812 25.409a1.662 1.662 0 01.537 1.186 1.638 1.638 0 01-.494 1.204 1.69 1.69 0 01-1.224.486 1.713 1.713 0 01-1.205-.528l-4.503-4.43a1.658 1.658 0 01-.495-1.175 1.636 1.636 0 01.495-1.174l4.503-4.43a1.689 1.689 0 011.205-.529 1.713 1.713 0 011.224.486 1.658 1.658 0 01.494 1.205 1.639 1.639 0 01-.537 1.186l-3.307 3.256L55.7 66.41zm11.614-7.77l-4.502 10.337a1.677 1.677 0 01-.928.867c-.412.158-.872.15-1.278-.022a1.674 1.674 0 01-.897-.898 1.637 1.637 0 010-1.258l4.503-10.337c.182-.397.515-.708.928-.866.412-.158.872-.15 1.278.021.407.173.73.495.897.898.167.404.167.855 0 1.259zm10.899 5.687l-4.503 4.43a1.688 1.688 0 01-1.205.53 1.713 1.713 0 01-1.224-.487 1.66 1.66 0 01-.494-1.204 1.639 1.639 0 01.537-1.186l3.307-3.257-3.307-3.256a1.662 1.662 0 01-.537-1.186 1.639 1.639 0 01.494-1.205 1.69 1.69 0 011.224-.486 1.711 1.711 0 011.205.529l4.503 4.43a1.659 1.659 0 01.495 1.174 1.636 1.636 0 01-.495 1.174z" fill="#000"/><path d="M63.513 41c-4.453 0-8.805 1.3-12.508 3.733a22.234 22.234 0 00-8.291 9.942 21.823 21.823 0 00-1.281 12.799 22.045 22.045 0 006.16 11.342 22.629 22.629 0 0011.528 6.063c4.367.854 8.894.416 13.007-1.261a22.438 22.438 0 0010.104-8.159 21.9 21.9 0 003.794-12.307c0-2.909-.582-5.79-1.714-8.477a22.133 22.133 0 00-4.88-7.187 22.543 22.543 0 00-7.304-4.802A22.833 22.833 0 0063.513 41zm-7.812 25.409a1.662 1.662 0 01.537 1.186 1.638 1.638 0 01-.494 1.204 1.69 1.69 0 01-1.224.486 1.713 1.713 0 01-1.205-.528l-4.503-4.43a1.658 1.658 0 01-.495-1.175 1.636 1.636 0 01.495-1.174l4.503-4.43a1.689 1.689 0 011.205-.529 1.713 1.713 0 011.224.486 1.658 1.658 0 01.494 1.205 1.639 1.639 0 01-.537 1.186l-3.307 3.256L55.7 66.41zm11.614-7.77l-4.502 10.337a1.677 1.677 0 01-.928.867c-.412.158-.872.15-1.278-.022a1.674 1.674 0 01-.897-.898 1.637 1.637 0 010-1.258l4.503-10.337c.182-.397.515-.708.928-.866.412-.158.872-.15 1.278.021.407.173.73.495.897.898.167.404.167.855 0 1.259zm10.899 5.687l-4.503 4.43a1.688 1.688 0 01-1.205.53 1.713 1.713 0 01-1.224-.487 1.66 1.66 0 01-.494-1.204 1.639 1.639 0 01.537-1.186l3.307-3.257-3.307-3.256a1.662 1.662 0 01-.537-1.186 1.639 1.639 0 01.494-1.205 1.69 1.69 0 011.224-.486 1.711 1.711 0 011.205.529l4.503 4.43a1.659 1.659 0 01.495 1.174 1.636 1.636 0 01-.495 1.174z" fill="url(#paint0_linear_565_231)"/><path d="M63.513 41c-4.453 0-8.805 1.3-12.508 3.733a22.234 22.234 0 00-8.291 9.942 21.823 21.823 0 00-1.281 12.799 22.045 22.045 0 006.16 11.342 22.629 22.629 0 0011.528 6.063c4.367.854 8.894.416 13.007-1.261a22.438 22.438 0 0010.104-8.159 21.9 21.9 0 003.794-12.307c0-2.909-.582-5.79-1.714-8.477a22.133 22.133 0 00-4.88-7.187 22.543 22.543 0 00-7.304-4.802A22.833 22.833 0 0063.513 41zm-7.812 25.409a1.662 1.662 0 01.537 1.186 1.638 1.638 0 01-.494 1.204 1.69 1.69 0 01-1.224.486 1.713 1.713 0 01-1.205-.528l-4.503-4.43a1.658 1.658 0 01-.495-1.175 1.636 1.636 0 01.495-1.174l4.503-4.43a1.689 1.689 0 011.205-.529 1.713 1.713 0 011.224.486 1.658 1.658 0 01.494 1.205 1.639 1.639 0 01-.537 1.186l-3.307 3.256L55.7 66.41zm11.614-7.77l-4.502 10.337a1.677 1.677 0 01-.928.867c-.412.158-.872.15-1.278-.022a1.674 1.674 0 01-.897-.898 1.637 1.637 0 010-1.258l4.503-10.337c.182-.397.515-.708.928-.866.412-.158.872-.15 1.278.021.407.173.73.495.897.898.167.404.167.855 0 1.259zm10.899 5.687l-4.503 4.43a1.688 1.688 0 01-1.205.53 1.713 1.713 0 01-1.224-.487 1.66 1.66 0 01-.494-1.204 1.639 1.639 0 01.537-1.186l3.307-3.257-3.307-3.256a1.662 1.662 0 01-.537-1.186 1.639 1.639 0 01.494-1.205 1.69 1.69 0 011.224-.486 1.711 1.711 0 011.205.529l4.503 4.43a1.659 1.659 0 01.495 1.174 1.636 1.636 0 01-.495 1.174z" fill="url(#paint1_linear_565_231)"/><defs><linearGradient id="paint0_linear_565_231" x1="63.513" y1="41" x2="63.513" y2="85.304" gradientUnits="userSpaceOnUse"><stop stop-color="#792EA4"/><stop offset="1" stop-color="#991073"/></linearGradient><linearGradient id="paint1_linear_565_231" x1="70.432" y1="-9.552" x2="12.482" y2="12.246" gradientUnits="userSpaceOnUse"><stop stop-color="#FF7EF2"/><stop offset=".767" stop-color="#51168D"/><stop offset="1" stop-color="#E751A2"/></linearGradient></defs></svg>