<svg width="198" height="250" fill="none" xmlns="http://www.w3.org/2000/svg"><path d="M128.506 5.726h-.007a2.156 2.156 0 00-2.378 1.905l-3.5 32.119a2.152 2.152 0 001.912 2.37h.007a2.156 2.156 0 002.378-1.905l3.5-32.119a2.152 2.152 0 00-1.912-2.37z" fill="url(#paint0_linear_590_1254)"/><path d="M128.289 14.588c3.813 0 6.903-3.081 6.903-6.88 0-3.8-3.09-6.881-6.903-6.881-3.812 0-6.903 3.08-6.903 6.88s3.091 6.88 6.903 6.88z" fill="url(#paint1_radial_590_1254)"/><path d="M112.089 33.973l25.34 3.23c4.973.635 8.492 5.172 7.856 10.128l-.287 2.238a.36.36 0 01-.402.31l-42.644-5.437a.36.36 0 01-.312-.401l.288-2.238c.636-4.956 5.188-8.464 10.161-7.83z" fill="url(#paint2_linear_590_1254)"/><path d="M125.892 4.725c.888-.348 1.399-1.158 1.143-1.808-.257-.65-1.185-.895-2.073-.547-.888.349-1.399 1.158-1.143 1.808.257.65 1.185.895 2.073.547z" fill="#fff"/><path d="M104.002 43.044l29.562 3.383c35.341 4.044 60.733 35.926 56.676 71.144l-2.037 17.686c-2.291 19.885-20.347 34.174-40.298 31.891l-85.338-9.766c-19.95-2.283-34.287-20.28-31.997-40.165l2.038-17.686c4.058-35.224 36.045-60.533 71.38-56.489l.014.002z" fill="url(#paint3_linear_590_1254)"/><path d="M103.853 42.873l29.562 3.384c35.341 4.044 60.733 35.926 56.676 71.144l-2.037 17.685c-2.291 19.885-20.347 34.175-40.298 31.891l-85.338-9.766c-19.95-2.283-34.287-20.279-31.996-40.164l2.037-17.686c4.058-35.225 36.045-60.533 71.38-56.49l.014.002z" fill="url(#paint4_linear_590_1254)"/><path d="M62.134 116.472s-16.359 4.309-20.449-5.98c-4.09-10.289 10.634-33.854 36.568-34.81 25.935-.956 51.757 6.1 55.148 7.892 3.392 1.792 23.89 9.853 24.186 32.301.254 19.383-20.209 13.409-32.943 6.346-5.994-3.324-33.07-12.446-62.51-5.749z" fill="url(#paint5_linear_590_1254)"/><path d="M51.755 97.054s-5.275 4.048-3.956.942C49.117 94.89 59.08 82.563 71.505 80.11c12.425-2.453 1.636 2.249.17 3.24-1.834 1.237-12.947 7.927-19.913 13.704h-.008z" fill="#fff"/><path d="M76.92 114.463c6.531 0 11.826-5.277 11.826-11.786 0-6.51-5.295-11.786-11.825-11.786-6.531 0-11.826 5.276-11.826 11.786 0 6.509 5.295 11.786 11.826 11.786z" stroke="#fff" stroke-width="2" stroke-miterlimit="10"/><path d="M73.93 102.684a3.745 3.745 0 003.752-3.739 3.745 3.745 0 00-3.751-3.739 3.745 3.745 0 00-3.751 3.739 3.745 3.745 0 003.75 3.739zm4.006 10.197a1.872 1.872 0 001.875-1.869c0-1.032-.84-1.869-1.875-1.869a1.872 1.872 0 00-1.876 1.869c0 1.032.84 1.869 1.876 1.869zm4.611-2.375a.937.937 0 00.938-.935.937.937 0 00-.938-.935.937.937 0 00-.937.935c0 .516.42.935.937.935z" fill="#fff"/><path d="M121.019 120.226c6.531 0 11.825-5.277 11.825-11.786 0-6.509-5.294-11.786-11.825-11.786s-11.825 5.277-11.825 11.786c0 6.509 5.294 11.786 11.825 11.786z" stroke="#fff" stroke-width="2" stroke-miterlimit="10"/><path d="M118.029 108.44a3.746 3.746 0 003.752-3.739 3.746 3.746 0 00-3.752-3.739 3.745 3.745 0 00-3.751 3.739 3.745 3.745 0 003.751 3.739zm4.006 10.197a1.872 1.872 0 001.875-1.869c0-1.033-.84-1.87-1.875-1.87a1.873 1.873 0 00-1.876 1.87c0 1.032.84 1.869 1.876 1.869zm4.611-2.375a.936.936 0 00.938-.935.936.936 0 00-.938-.934.936.936 0 00-.938.934c0 .517.42.935.938.935z" fill="#fff"/><path d="M55.421 106.964s-7.383.358-7.798 3.949c-.417 3.592 3.54 3.472 5.457 2.39 1.918-1.075 4.069-5.426 4.266-5.651.198-.224.028-.864-1.925-.688z" fill="url(#paint6_linear_590_1254)"/><path d="M49.835 110.386c.573-.441.835-1.06.585-1.383-.25-.322-.917-.226-1.49.215-.574.442-.836 1.061-.586 1.384.25.322.918.226 1.49-.216z" fill="#fff"/><path d="M140.953 113.844s7.383.359 7.799 3.95c.416 3.591-3.54 3.472-5.458 2.389-1.918-1.075-4.068-5.425-4.266-5.65-.197-.225-.028-.865 1.925-.689z" fill="url(#paint7_linear_590_1254)"/><path d="M148.025 117.46c.25-.322-.012-.941-.585-1.383-.573-.441-1.241-.538-1.491-.215-.25.322.012.942.586 1.383.573.441 1.24.538 1.49.215zm-49.478 5.935s8.278.605 15.604-.892c7.32-1.497 9.964 1.37 10.084 4.125.12 2.748.155 13.705-24.123 15.075-26.816 1.511-33.472-10.64-32.048-16.15.726-2.79 3.723-6.937 12.72-4.667 9.005 2.27 17.763 2.509 17.763 2.509zM64.665 55.069s-5.457 2.93-5.52 7c-.064 4.069 4.858 6.402 7.742 4.666 2.883-1.736 8.278-8.433 9.3-10.823 1.023-2.39.05-3.465-2.77-3.465-2.822 0-6.728 1.455-8.752 2.629v-.007zM82.37 51.89c2.352-.922 3.924-2.516 3.512-3.56-.412-1.044-2.653-1.142-5.005-.22-2.352.922-3.924 2.517-3.512 3.56.412 1.044 2.653 1.143 5.005.22z" fill="#fff"/><path d="M57.395 176.288s8.822-4.842 17.826-1.975c9.005 2.874 8.462 19.468-2.968 23.059-11.43 3.591-34.925 3.676-43.21-1.167-8.279-4.842-2.158-11.575 1.438-12.467 3.603-.9 14.673-1.526 18.27-3.142 3.603-1.616 8.645-4.308 8.645-4.308z" fill="url(#paint8_linear_590_1254)"/><path d="M110.407 249.506l-18.136-.127c-15.915-.112-31.434-12.763-34.763-31l-4.273-23.418c-3.123-17.127 6.79-32.61 22.29-31.794l59.491 3.134c14.307.752 21.718 16.256 17.311 32.174l-6.085 21.97c-4.788 17.282-20.477 29.173-35.828 29.068l-.007-.007z" fill="url(#paint9_linear_590_1254)"/><path d="M94.14 183.456c10.125-.934 19.292 7.387 19.497 18.807.211 11.568-8.857 20.143-19.23 19.109-9.385-.934-16.351-9.544-16.33-19.207.021-9.558 6.882-17.865 16.063-18.709z" fill="url(#paint10_linear_590_1254)"/><path d="M97.327 207.788l3.758 6.683 7.03-12.207-10.795 5.531.007-.007z" fill="url(#paint11_linear_590_1254)"/><path d="M97.228 196.774l10.909 5.482-10.796 5.531-.12-11.013h.007z" fill="url(#paint12_linear_590_1254)"/><path d="M100.824 190.175l-3.596 6.6 10.909 5.481-7.32-12.081h.007z" fill="url(#paint13_linear_590_1254)"/><path d="M87.956 190.871l9.28 5.904 3.595-6.6-12.868.696h-.007z" fill="url(#paint14_linear_590_1254)"/><path d="M88.45 202.228l-.501-11.35 9.28 5.903-8.78 5.447z" fill="url(#paint15_linear_590_1254)"/><path d="M82.11 202.186l6.34.064-.501-11.351-5.846 11.287h.007z" fill="url(#paint16_linear_590_1254)"/><path d="M88.033 213.649l.423-11.428-6.339-.063 5.923 11.491h-.007z" fill="url(#paint17_linear_590_1254)"/><path d="M97.327 207.788l-9.294 5.868.423-11.427 8.878 5.559h-.007z" fill="url(#paint18_linear_590_1254)"/><path d="M101.113 214.464l-13.058-.815 9.3-5.869 3.766 6.684h-.008z" fill="url(#paint19_linear_590_1254)"/><path d="M93.52 218.041c2.044-1.385 4.131-6.332.98-19.271-2.25-9.235-5.007-10.858-6.953-10.563-4.393 2.432-7.46 7.506-7.686 13.374-.31 8.097 4.957 15.413 12.227 16.355.472.056.952.091 1.417.098l.014.007z" fill="url(#paint20_linear_590_1254)"/><path d="M79.86 188.341H10.498a2.914 2.914 0 00-2.919 2.909v.007a2.915 2.915 0 002.92 2.91H79.86a2.915 2.915 0 002.92-2.91v-.007a2.914 2.914 0 00-2.92-2.909z" fill="url(#paint21_linear_590_1254)"/><path d="M79.86 188.341H10.498a2.914 2.914 0 00-2.919 2.909v.007a2.915 2.915 0 002.92 2.91H79.86a2.915 2.915 0 002.92-2.91v-.007a2.914 2.914 0 00-2.92-2.909z" fill="#A9A9A9"/><path d="M114.342 188.341H79.854a2.914 2.914 0 00-2.92 2.909v.007a2.915 2.915 0 002.92 2.91h34.488a2.915 2.915 0 002.919-2.91v-.007a2.914 2.914 0 00-2.919-2.909z" fill="#8D8D8D"/><path d="M114.391 188.299H77.943a2.915 2.915 0 00-2.92 2.909v.007a2.915 2.915 0 002.92 2.91h36.448a2.915 2.915 0 002.919-2.91v-.007a2.914 2.914 0 00-2.919-2.909z" fill="url(#paint22_linear_590_1254)"/><path d="M74.192 193.963H10.97c-1.608 0-3.138-1.419-3.399-3.148L.358 142.87c-.268-1.799.846-3.317 2.482-3.374l64.223-2.171c1.77-.064 3.42 1.426 3.652 3.31l6.248 50.046c.225 1.807-1.016 3.289-2.764 3.289l-.007-.007z" fill="url(#paint23_linear_590_1254)"/><path d="M73.26 194.814H10.844c-1.594 0-3.103-1.399-3.356-3.106L.35 143.762c-.268-1.82.846-3.359 2.482-3.415l63.454-2.172c1.777-.063 3.399 1.455 3.596 3.36l6.163 50.046c.183 1.785-1.072 3.24-2.792 3.24l.007-.007z" fill="url(#paint24_linear_590_1254)"/><path d="M36.638 171.154c2.366-.519 3.782-3.213 3.163-6.018-.619-2.806-3.038-4.66-5.404-4.141-2.366.518-3.782 3.213-3.163 6.018.618 2.805 3.038 4.659 5.404 4.141z" fill="url(#paint25_linear_590_1254)"/><path d="M127.972 174.496s8.821-4.842 17.825-1.975c9.005 2.874 9.964 21-2.968 23.059-14.258 2.27-35.179 4.083-43.21-1.167-7.503-4.905-2.045-11.195 1.438-12.467 3.836-1.406 14.674-1.525 18.27-3.142 3.603-1.616 8.645-4.308 8.645-4.308z" fill="url(#paint26_linear_590_1254)"/><path d="M127.824 174.559s8.821-4.842 17.825-1.975c9.005 2.874 9.964 21-2.968 23.059-14.258 2.27-35.179 4.083-43.21-1.167-7.503-4.905-2.045-11.195 1.438-12.467 3.836-1.406 14.674-1.526 18.27-3.142 3.603-1.616 8.645-4.308 8.645-4.308z" fill="url(#paint27_linear_590_1254)"/><path d="M124.023 179.756c1.214-.476 2.026-1.299 1.814-1.837-.213-.538-1.369-.588-2.583-.112-1.214.476-2.026 1.298-1.813 1.836.212.539 1.368.589 2.582.113zm16.662-2.196c.452 0 1.756.127 2.186.197.825.147 1.425.316 2.912.548 2.638.415 4.739-2.361 1.234-4.35-3.504-1.982-11.585-1.125-14.991.014-3.264 1.089-4.9 1.89-5.338 3.465-.148.534.163 1.096 4.006.583 3.843-.513 8.045-.492 9.998-.464l-.007.007z" fill="#fff"/><defs><linearGradient id="paint0_linear_590_1254" x1="124.371" y1="23.694" x2="128.667" y2="24.162" gradientUnits="userSpaceOnUse"><stop stop-color="#CEC1C7"/><stop offset="1" stop-color="#C2B7C4"/></linearGradient><linearGradient id="paint2_linear_590_1254" x1="123.299" y1="54.135" x2="125.744" y2="33.949" gradientUnits="userSpaceOnUse"><stop stop-color="#E0CDD5"/><stop offset="1" stop-color="#CEC5D0"/></linearGradient><linearGradient id="paint3_linear_590_1254" x1="103.23" y1="171.204" x2="120.435" y2="41.529" gradientUnits="userSpaceOnUse"><stop stop-color="#F98FA8"/><stop offset="1" stop-color="#F825C1"/></linearGradient><linearGradient id="paint4_linear_590_1254" x1="103.084" y1="171.023" x2="120.29" y2="41.356" gradientUnits="userSpaceOnUse"><stop stop-color="#E3D7DC"/><stop offset="1" stop-color="#B8A7B7"/></linearGradient><linearGradient id="paint5_linear_590_1254" x1="97.75" y1="123.304" x2="103.901" y2="76.97" gradientUnits="userSpaceOnUse"><stop stop-color="#041420"/><stop offset="1" stop-color="#0A2C76"/></linearGradient><linearGradient id="paint6_linear_590_1254" x1="53.729" y1="113.141" x2="51.745" y2="107.543" gradientUnits="userSpaceOnUse"><stop stop-color="#A8A8A8"/><stop offset="1" stop-color="#FB4197"/></linearGradient><linearGradient id="paint7_linear_590_1254" x1="142.653" y1="120.022" x2="144.629" y2="114.416" gradientUnits="userSpaceOnUse"><stop stop-color="#A8A8A8"/><stop offset="1" stop-color="#A5999E"/></linearGradient><linearGradient id="paint8_linear_590_1254" x1="53.362" y1="208.912" x2="53.054" y2="172.352" gradientUnits="userSpaceOnUse"><stop stop-color="#E3D4DB"/><stop offset="1" stop-color="#B0A5B1"/></linearGradient><linearGradient id="paint9_linear_590_1254" x1="103.96" y1="249.576" x2="103.321" y2="162.941" gradientUnits="userSpaceOnUse"><stop stop-color="#EBDBE1"/><stop offset="1" stop-color="#B4B0B6"/></linearGradient><linearGradient id="paint10_linear_590_1254" x1="78.077" y1="202.425" x2="113.644" y2="202.425" gradientUnits="userSpaceOnUse"><stop stop-color="#3D324F"/><stop offset="1" stop-color="#361C36"/></linearGradient><linearGradient id="paint11_linear_590_1254" x1="97.969" y1="213.266" x2="105.028" y2="200.994" gradientUnits="userSpaceOnUse"><stop stop-color="#A9208B"/><stop offset="1" stop-color="#492683"/></linearGradient><linearGradient id="paint12_linear_590_1254" x1="97.518" y1="208.439" x2="102.614" y2="199.582" gradientUnits="userSpaceOnUse"><stop stop-color="#F71475"/><stop offset="1" stop-color="#C9156C"/></linearGradient><linearGradient id="paint13_linear_590_1254" x1="102.201" y1="200.154" x2="105.971" y2="193.603" gradientUnits="userSpaceOnUse"><stop stop-color="#F71475"/><stop offset="1" stop-color="#FA7DA3"/></linearGradient><linearGradient id="paint14_linear_590_1254" x1="92.244" y1="194.423" x2="96.014" y2="187.866" gradientUnits="userSpaceOnUse"><stop stop-color="#F5A630"/><stop offset="1" stop-color="#D81B12"/></linearGradient><linearGradient id="paint15_linear_590_1254" x1="87.675" y1="202.31" x2="92.481" y2="193.96" gradientUnits="userSpaceOnUse"><stop stop-color="#FB9600"/><stop offset="1" stop-color="#FEBD00"/></linearGradient><linearGradient id="paint16_linear_590_1254" x1="84.007" y1="203.81" x2="90.366" y2="192.754" gradientUnits="userSpaceOnUse"><stop stop-color="#F8E7C5"/><stop offset="1" stop-color="#FEBD00"/></linearGradient><linearGradient id="paint17_linear_590_1254" x1="83.055" y1="211.381" x2="88.126" y2="202.575" gradientUnits="userSpaceOnUse"><stop stop-color="#B4E4E1"/><stop offset="1" stop-color="#2BC9BF"/></linearGradient><linearGradient id="paint18_linear_590_1254" x1="87.669" y1="214.031" x2="92.733" y2="205.218" gradientUnits="userSpaceOnUse"><stop stop-color="#2E817C"/><stop offset="1" stop-color="#08CEC1"/></linearGradient><linearGradient id="paint19_linear_590_1254" x1="92.879" y1="217.004" x2="97.748" y2="208.539" gradientUnits="userSpaceOnUse"><stop stop-color="#0C7069"/><stop offset="1" stop-color="#32AFA7"/></linearGradient><linearGradient id="paint20_linear_590_1254" x1="79.817" y1="202.655" x2="96.421" y2="203.362" gradientUnits="userSpaceOnUse"><stop stop-color="#F2F2F2" stop-opacity=".1"/><stop offset="1" stop-color="#EEE" stop-opacity=".4"/></linearGradient><linearGradient id="paint21_linear_590_1254" x1="21.145" y1="209.755" x2="69.08" y2="172.599" gradientUnits="userSpaceOnUse"><stop stop-color="#969696"/><stop offset=".99" stop-color="#5E5E5E" stop-opacity=".7"/></linearGradient><linearGradient id="paint22_linear_590_1254" x1="117.31" y1="191.208" x2="75.024" y2="191.208" gradientUnits="userSpaceOnUse"><stop stop-color="#277E8D"/><stop offset="1" stop-color="#55C5FF"/></linearGradient><linearGradient id="paint23_linear_590_1254" x1=".315" y1="165.641" x2="76.977" y2="165.641" gradientUnits="userSpaceOnUse"><stop stop-color="#669491"/><stop offset="1" stop-color="#68B6C5"/></linearGradient><linearGradient id="paint24_linear_590_1254" x1="5.413" y1="162.668" x2="84.057" y2="171.786" gradientUnits="userSpaceOnUse"><stop stop-color="#809C9A"/><stop offset="1" stop-color="#53ACBD"/></linearGradient><linearGradient id="paint25_linear_590_1254" x1="28.566" y1="167.144" x2="37.13" y2="166.203" gradientUnits="userSpaceOnUse"><stop stop-color="#D4FEFF"/><stop offset=".99" stop-color="#F0F0F0" stop-opacity=".7"/></linearGradient><linearGradient id="paint26_linear_590_1254" x1="124.305" y1="197.773" x2="124.081" y2="171.741" gradientUnits="userSpaceOnUse"><stop stop-color="#F692E0" stop-opacity=".4"/><stop offset="1" stop-color="#F825C1"/></linearGradient><linearGradient id="paint27_linear_590_1254" x1="126.703" y1="200.338" x2="120.971" y2="168.691" gradientUnits="userSpaceOnUse"><stop stop-color="#CDC0C6"/><stop offset="1" stop-color="#9F92A2"/></linearGradient><radialGradient id="paint1_radial_590_1254" cx="0" cy="0" r="1" gradientUnits="userSpaceOnUse" gradientTransform="matrix(11.3878 0 0 11.3502 130.087 9.682)"><stop stop-color="#A4B3A6"/><stop offset="1" stop-color="#5A5592"/></radialGradient></defs></svg>