<svg width="36" height="36" viewBox="0 0 36 36" fill="none" xmlns="http://www.w3.org/2000/svg">
<path fill-rule="evenodd" clip-rule="evenodd" d="M5.1967 5.1967C3 7.3934 3 10.9289 3 18C3 25.0711 3 28.6066 5.1967 30.8033C7.3934 33 10.9289 33 18 33C25.0711 33 28.6066 33 30.8033 30.8033C33 28.6066 33 25.0711 33 18C33 10.9289 33 7.3934 30.8033 5.1967C28.6066 3 25.0711 3 18 3C10.9289 3 7.3934 3 5.1967 5.1967ZM20.625 15C20.625 15.6213 21.1287 16.125 21.75 16.125H22.784L19.7652 19.1438C19.6187 19.2903 19.3813 19.2903 19.2348 19.1438L16.8562 16.7652C15.831 15.74 14.169 15.74 13.1438 16.7652L9.7045 20.2045C9.26516 20.6438 9.26516 21.3562 9.7045 21.7955C10.1438 22.2348 10.8562 22.2348 11.2955 21.7955L14.7348 18.3562C14.8813 18.2097 15.1187 18.2097 15.2652 18.3562L17.6438 20.7348C18.669 21.76 20.331 21.76 21.3562 20.7348L24.375 17.716V18.75C24.375 19.3713 24.8787 19.875 25.5 19.875C26.1213 19.875 26.625 19.3713 26.625 18.75V15C26.625 14.3787 26.1213 13.875 25.5 13.875H21.75C21.1287 13.875 20.625 14.3787 20.625 15Z" fill="#001D22"/>
</svg>
